<?xml version="1.0" encoding="utf-8"?><svg width="auto" height="5620" style="overflow:visible " version="1.1" xmlns="http://www.w3.org/2000/svg"><rect x="20" y="20" width="140" height="30" style="fill:white;stroke:black;stroke-width:1" /><text x="30" y="30" font-size="10" style="fill:blue">xs:schema</text><text x="30" y="40" font-size="8" style="fill:black">xmlns:xs: http://www.w3.org/2001/XMLSchema</text><text x="30" y="50" font-size="8" style="fill:black">targetNamespace: http://www.uniovi.es</text><text x="30" y="60" font-size="8" style="fill:black">xmlns: http://www.uniovi.es</text><text x="30" y="70" font-size="8" style="fill:black">elementFormDefault: qualified</text><rect x="170" y="20" width="140" height="30" style="fill:white;stroke:black;stroke-width:1" /><text x="180" y="30" font-size="10" style="fill:blue">xs:element</text><path d="M160 35 C170 35 160 35 170 35" style="fill:transparent;stroke:black" /><text x="180" y="40" font-size="8" style="fill:black">name: circuito</text><rect x="320" y="20" width="140" height="30" style="fill:white;stroke:black;stroke-width:1" /><text x="330" y="30" font-size="10" style="fill:blue">xs:complexType</text><path d="M310 35 C320 35 310 35 320 35" style="fill:transparent;stroke:black" /><rect x="470" y="20" width="140" height="30" style="fill:white;stroke:black;stroke-width:1" /><text x="480" y="30" font-size="10" style="fill:blue">xs:sequence</text><path d="M460 35 C470 35 460 35 470 35" style="fill:transparent;stroke:black" /><rect x="620" y="20" width="140" height="30" style="fill:white;stroke:black;stroke-width:1" /><text x="630" y="30" font-size="10" style="fill:blue">xs:element</text><path d="M610 35 C620 35 610 35 620 35" style="fill:transparent;stroke:black" /><text x="630" y="40" font-size="8" style="fill:black">ref: nombre</text><rect x="620" y="60" width="140" height="30" style="fill:white;stroke:black;stroke-width:1" /><text x="630" y="70" font-size="10" style="fill:blue">xs:element</text><path d="M610 35 C620 35 610 75 620 75" style="fill:transparent;stroke:black" /><text x="630" y="80" font-size="8" style="fill:black">ref: longitud</text><rect x="620" y="100" width="140" height="30" style="fill:white;stroke:black;stroke-width:1" /><text x="630" y="110" font-size="10" style="fill:blue">xs:element</text><path d="M610 35 C620 35 610 115 620 115" style="fill:transparent;stroke:black" /><text x="630" y="120" font-size="8" style="fill:black">ref: anchuraMedia</text><rect x="620" y="140" width="140" height="30" style="fill:white;stroke:black;stroke-width:1" /><text x="630" y="150" font-size="10" style="fill:blue">xs:element</text><path d="M610 35 C620 35 610 155 620 155" style="fill:transparent;stroke:black" /><text x="630" y="160" font-size="8" style="fill:black">ref: fecha</text><rect x="620" y="180" width="140" height="30" style="fill:white;stroke:black;stroke-width:1" /><text x="630" y="190" font-size="10" style="fill:blue">xs:element</text><path d="M610 35 C620 35 610 195 620 195" style="fill:transparent;stroke:black" /><text x="630" y="200" font-size="8" style="fill:black">ref: horaInicio</text><rect x="620" y="220" width="140" height="30" style="fill:white;stroke:black;stroke-width:1" /><text x="630" y="230" font-size="10" style="fill:blue">xs:element</text><path d="M610 35 C620 35 610 235 620 235" style="fill:transparent;stroke:black" /><text x="630" y="240" font-size="8" style="fill:black">ref: numeroVueltas</text><rect x="620" y="260" width="140" height="30" style="fill:white;stroke:black;stroke-width:1" /><text x="630" y="270" font-size="10" style="fill:blue">xs:element</text><path d="M610 35 C620 35 610 275 620 275" style="fill:transparent;stroke:black" /><text x="630" y="280" font-size="8" style="fill:black">ref: localidadProxima</text><rect x="620" y="300" width="140" height="30" style="fill:white;stroke:black;stroke-width:1" /><text x="630" y="310" font-size="10" style="fill:blue">xs:element</text><path d="M610 35 C620 35 610 315 620 315" style="fill:transparent;stroke:black" /><text x="630" y="320" font-size="8" style="fill:black">ref: pais</text><rect x="620" y="340" width="140" height="30" style="fill:white;stroke:black;stroke-width:1" /><text x="630" y="350" font-size="10" style="fill:blue">xs:element</text><path d="M610 35 C620 35 610 355 620 355" style="fill:transparent;stroke:black" /><text x="630" y="360" font-size="8" style="fill:black">ref: patrocinador</text><rect x="620" y="380" width="140" height="30" style="fill:white;stroke:black;stroke-width:1" /><text x="630" y="390" font-size="10" style="fill:blue">xs:element</text><path d="M610 35 C620 35 610 395 620 395" style="fill:transparent;stroke:black" /><text x="630" y="400" font-size="8" style="fill:black">ref: referencias</text><rect x="620" y="420" width="140" height="30" style="fill:white;stroke:black;stroke-width:1" /><text x="630" y="430" font-size="10" style="fill:blue">xs:element</text><path d="M610 35 C620 35 610 435 620 435" style="fill:transparent;stroke:black" /><text x="630" y="440" font-size="8" style="fill:black">ref: fotografias</text><rect x="620" y="460" width="140" height="30" style="fill:white;stroke:black;stroke-width:1" /><text x="630" y="470" font-size="10" style="fill:blue">xs:element</text><path d="M610 35 C620 35 610 475 620 475" style="fill:transparent;stroke:black" /><text x="630" y="480" font-size="8" style="fill:black">ref: videos</text><rect x="620" y="500" width="140" height="30" style="fill:white;stroke:black;stroke-width:1" /><text x="630" y="510" font-size="10" style="fill:blue">xs:element</text><path d="M610 35 C620 35 610 515 620 515" style="fill:transparent;stroke:black" /><text x="630" y="520" font-size="8" style="fill:black">ref: puntoOrigen</text><rect x="620" y="540" width="140" height="30" style="fill:white;stroke:black;stroke-width:1" /><text x="630" y="550" font-size="10" style="fill:blue">xs:element</text><path d="M610 35 C620 35 610 555 620 555" style="fill:transparent;stroke:black" /><text x="630" y="560" font-size="8" style="fill:black">ref: tramos</text><rect x="620" y="580" width="140" height="30" style="fill:white;stroke:black;stroke-width:1" /><text x="630" y="590" font-size="10" style="fill:blue">xs:element</text><path d="M610 35 C620 35 610 595 620 595" style="fill:transparent;stroke:black" /><text x="630" y="600" font-size="8" style="fill:black">ref: vencedor</text><rect x="620" y="620" width="140" height="30" style="fill:white;stroke:black;stroke-width:1" /><text x="630" y="630" font-size="10" style="fill:blue">xs:element</text><path d="M610 35 C620 35 610 635 620 635" style="fill:transparent;stroke:black" /><text x="630" y="640" font-size="8" style="fill:black">ref: tiempoVencedor</text><rect x="620" y="660" width="140" height="30" style="fill:white;stroke:black;stroke-width:1" /><text x="630" y="670" font-size="10" style="fill:blue">xs:element</text><path d="M610 35 C620 35 610 675 620 675" style="fill:transparent;stroke:black" /><text x="630" y="680" font-size="8" style="fill:black">ref: clasificados</text><rect x="170" y="820" width="140" height="30" style="fill:white;stroke:black;stroke-width:1" /><text x="180" y="830" font-size="10" style="fill:blue">xs:element</text><path d="M160 35 C170 35 160 835 170 835" style="fill:transparent;stroke:black" /><text x="180" y="840" font-size="8" style="fill:black">name: nombre</text><text x="180" y="850" font-size="8" style="fill:black">type: xs:string</text><rect x="170" y="860" width="140" height="30" style="fill:white;stroke:black;stroke-width:1" /><text x="180" y="870" font-size="10" style="fill:blue">xs:element</text><path d="M160 35 C170 35 160 875 170 875" style="fill:transparent;stroke:black" /><text x="180" y="880" font-size="8" style="fill:black">name: longitud</text><rect x="320" y="860" width="140" height="30" style="fill:white;stroke:black;stroke-width:1" /><text x="330" y="870" font-size="10" style="fill:blue">xs:complexType</text><path d="M310 875 C320 875 310 875 320 875" style="fill:transparent;stroke:black" /><rect x="470" y="860" width="140" height="30" style="fill:white;stroke:black;stroke-width:1" /><text x="480" y="870" font-size="10" style="fill:blue">xs:simpleContent</text><path d="M460 875 C470 875 460 875 470 875" style="fill:transparent;stroke:black" /><rect x="620" y="860" width="140" height="30" style="fill:white;stroke:black;stroke-width:1" /><text x="630" y="870" font-size="10" style="fill:blue">xs:extension</text><path d="M610 875 C620 875 610 875 620 875" style="fill:transparent;stroke:black" /><text x="630" y="880" font-size="8" style="fill:black">base: xs:string</text><rect x="770" y="860" width="140" height="30" style="fill:white;stroke:black;stroke-width:1" /><text x="780" y="870" font-size="10" style="fill:blue">xs:attribute</text><path d="M760 875 C770 875 760 875 770 875" style="fill:transparent;stroke:black" /><text x="780" y="880" font-size="8" style="fill:black">name: cantidad</text><text x="780" y="890" font-size="8" style="fill:black">use: required</text><rect x="920" y="860" width="140" height="30" style="fill:white;stroke:black;stroke-width:1" /><text x="930" y="870" font-size="10" style="fill:blue">xs:simpleType</text><path d="M910 875 C920 875 910 875 920 875" style="fill:transparent;stroke:black" /><rect x="1070" y="860" width="140" height="30" style="fill:white;stroke:black;stroke-width:1" /><text x="1080" y="870" font-size="10" style="fill:blue">xs:restriction</text><path d="M1060 875 C1070 875 1060 875 1070 875" style="fill:transparent;stroke:black" /><text x="1080" y="880" font-size="8" style="fill:black">base: xs:decimal</text><rect x="1220" y="860" width="140" height="30" style="fill:white;stroke:black;stroke-width:1" /><text x="1230" y="870" font-size="10" style="fill:blue">xs:minInclusive</text><path d="M1210 875 C1220 875 1210 875 1220 875" style="fill:transparent;stroke:black" /><text x="1230" y="880" font-size="8" style="fill:black">value: 0</text><rect x="1220" y="900" width="140" height="30" style="fill:white;stroke:black;stroke-width:1" /><text x="1230" y="910" font-size="10" style="fill:blue">xs:maxInclusive</text><path d="M1210 875 C1220 875 1210 915 1220 915" style="fill:transparent;stroke:black" /><text x="1230" y="920" font-size="8" style="fill:black">value: 10000</text><rect x="770" y="1060" width="140" height="30" style="fill:white;stroke:black;stroke-width:1" /><text x="780" y="1070" font-size="10" style="fill:blue">xs:attribute</text><path d="M760 875 C770 875 760 1075 770 1075" style="fill:transparent;stroke:black" /><text x="780" y="1080" font-size="8" style="fill:black">name: unidad</text><text x="780" y="1090" font-size="8" style="fill:black">type: xs:string</text><text x="780" y="1100" font-size="8" style="fill:black">use: required</text><rect x="170" y="1260" width="140" height="30" style="fill:white;stroke:black;stroke-width:1" /><text x="180" y="1270" font-size="10" style="fill:blue">xs:element</text><path d="M160 35 C170 35 160 1275 170 1275" style="fill:transparent;stroke:black" /><text x="180" y="1280" font-size="8" style="fill:black">name: anchuraMedia</text><rect x="320" y="1260" width="140" height="30" style="fill:white;stroke:black;stroke-width:1" /><text x="330" y="1270" font-size="10" style="fill:blue">xs:complexType</text><path d="M310 1275 C320 1275 310 1275 320 1275" style="fill:transparent;stroke:black" /><rect x="470" y="1260" width="140" height="30" style="fill:white;stroke:black;stroke-width:1" /><text x="480" y="1270" font-size="10" style="fill:blue">xs:simpleContent</text><path d="M460 1275 C470 1275 460 1275 470 1275" style="fill:transparent;stroke:black" /><rect x="620" y="1260" width="140" height="30" style="fill:white;stroke:black;stroke-width:1" /><text x="630" y="1270" font-size="10" style="fill:blue">xs:extension</text><path d="M610 1275 C620 1275 610 1275 620 1275" style="fill:transparent;stroke:black" /><text x="630" y="1280" font-size="8" style="fill:black">base: xs:string</text><rect x="770" y="1260" width="140" height="30" style="fill:white;stroke:black;stroke-width:1" /><text x="780" y="1270" font-size="10" style="fill:blue">xs:attribute</text><path d="M760 1275 C770 1275 760 1275 770 1275" style="fill:transparent;stroke:black" /><text x="780" y="1280" font-size="8" style="fill:black">name: cantidad</text><text x="780" y="1290" font-size="8" style="fill:black">type: xs:decimal</text><text x="780" y="1300" font-size="8" style="fill:black">use: required</text><rect x="770" y="1300" width="140" height="30" style="fill:white;stroke:black;stroke-width:1" /><text x="780" y="1310" font-size="10" style="fill:blue">xs:attribute</text><path d="M760 1275 C770 1275 760 1315 770 1315" style="fill:transparent;stroke:black" /><text x="780" y="1320" font-size="8" style="fill:black">name: unidad</text><text x="780" y="1330" font-size="8" style="fill:black">type: xs:string</text><text x="780" y="1340" font-size="8" style="fill:black">use: required</text><rect x="170" y="1500" width="140" height="30" style="fill:white;stroke:black;stroke-width:1" /><text x="180" y="1510" font-size="10" style="fill:blue">xs:element</text><path d="M160 35 C170 35 160 1515 170 1515" style="fill:transparent;stroke:black" /><text x="180" y="1520" font-size="8" style="fill:black">name: fecha</text><text x="180" y="1530" font-size="8" style="fill:black">type: xs:date</text><rect x="170" y="1540" width="140" height="30" style="fill:white;stroke:black;stroke-width:1" /><text x="180" y="1550" font-size="10" style="fill:blue">xs:element</text><path d="M160 35 C170 35 160 1555 170 1555" style="fill:transparent;stroke:black" /><text x="180" y="1560" font-size="8" style="fill:black">name: horaInicio</text><text x="180" y="1570" font-size="8" style="fill:black">type: xs:time</text><rect x="170" y="1580" width="140" height="30" style="fill:white;stroke:black;stroke-width:1" /><text x="180" y="1590" font-size="10" style="fill:blue">xs:element</text><path d="M160 35 C170 35 160 1595 170 1595" style="fill:transparent;stroke:black" /><text x="180" y="1600" font-size="8" style="fill:black">name: numeroVueltas</text><rect x="320" y="1580" width="140" height="30" style="fill:white;stroke:black;stroke-width:1" /><text x="330" y="1590" font-size="10" style="fill:blue">xs:simpleType</text><path d="M310 1595 C320 1595 310 1595 320 1595" style="fill:transparent;stroke:black" /><rect x="470" y="1580" width="140" height="30" style="fill:white;stroke:black;stroke-width:1" /><text x="480" y="1590" font-size="10" style="fill:blue">xs:restriction</text><path d="M460 1595 C470 1595 460 1595 470 1595" style="fill:transparent;stroke:black" /><text x="480" y="1600" font-size="8" style="fill:black">base: xs:positiveInteger</text><rect x="620" y="1580" width="140" height="30" style="fill:white;stroke:black;stroke-width:1" /><text x="630" y="1590" font-size="10" style="fill:blue">xs:minInclusive</text><path d="M610 1595 C620 1595 610 1595 620 1595" style="fill:transparent;stroke:black" /><text x="630" y="1600" font-size="8" style="fill:black">value: 15</text><rect x="620" y="1620" width="140" height="30" style="fill:white;stroke:black;stroke-width:1" /><text x="630" y="1630" font-size="10" style="fill:blue">xs:maxInclusive</text><path d="M610 1595 C620 1595 610 1635 620 1635" style="fill:transparent;stroke:black" /><text x="630" y="1640" font-size="8" style="fill:black">value: 35</text><rect x="170" y="1780" width="140" height="30" style="fill:white;stroke:black;stroke-width:1" /><text x="180" y="1790" font-size="10" style="fill:blue">xs:element</text><path d="M160 35 C170 35 160 1795 170 1795" style="fill:transparent;stroke:black" /><text x="180" y="1800" font-size="8" style="fill:black">name: localidadProxima</text><text x="180" y="1810" font-size="8" style="fill:black">type: xs:string</text><rect x="170" y="1820" width="140" height="30" style="fill:white;stroke:black;stroke-width:1" /><text x="180" y="1830" font-size="10" style="fill:blue">xs:element</text><path d="M160 35 C170 35 160 1835 170 1835" style="fill:transparent;stroke:black" /><text x="180" y="1840" font-size="8" style="fill:black">name: pais</text><text x="180" y="1850" font-size="8" style="fill:black">type: xs:string</text><rect x="170" y="1860" width="140" height="30" style="fill:white;stroke:black;stroke-width:1" /><text x="180" y="1870" font-size="10" style="fill:blue">xs:element</text><path d="M160 35 C170 35 160 1875 170 1875" style="fill:transparent;stroke:black" /><text x="180" y="1880" font-size="8" style="fill:black">name: patrocinador</text><text x="180" y="1890" font-size="8" style="fill:black">type: xs:string</text><rect x="170" y="1900" width="140" height="30" style="fill:white;stroke:black;stroke-width:1" /><text x="180" y="1910" font-size="10" style="fill:blue">xs:element</text><path d="M160 35 C170 35 160 1915 170 1915" style="fill:transparent;stroke:black" /><text x="180" y="1920" font-size="8" style="fill:black">name: referencias</text><rect x="320" y="1900" width="140" height="30" style="fill:white;stroke:black;stroke-width:1" /><text x="330" y="1910" font-size="10" style="fill:blue">xs:complexType</text><path d="M310 1915 C320 1915 310 1915 320 1915" style="fill:transparent;stroke:black" /><rect x="470" y="1900" width="140" height="30" style="fill:white;stroke:black;stroke-width:1" /><text x="480" y="1910" font-size="10" style="fill:blue">xs:sequence</text><path d="M460 1915 C470 1915 460 1915 470 1915" style="fill:transparent;stroke:black" /><rect x="620" y="1900" width="140" height="30" style="fill:white;stroke:black;stroke-width:1" /><text x="630" y="1910" font-size="10" style="fill:blue">xs:element</text><path d="M610 1915 C620 1915 610 1915 620 1915" style="fill:transparent;stroke:black" /><text x="630" y="1920" font-size="8" style="fill:black">minOccurs: 3</text><text x="630" y="1930" font-size="8" style="fill:black">maxOccurs: unbounded</text><text x="630" y="1940" font-size="8" style="fill:black">ref: referencia</text><rect x="170" y="2060" width="140" height="30" style="fill:white;stroke:black;stroke-width:1" /><text x="180" y="2070" font-size="10" style="fill:blue">xs:element</text><path d="M160 35 C170 35 160 2075 170 2075" style="fill:transparent;stroke:black" /><text x="180" y="2080" font-size="8" style="fill:black">name: referencia</text><rect x="320" y="2060" width="140" height="30" style="fill:white;stroke:black;stroke-width:1" /><text x="330" y="2070" font-size="10" style="fill:blue">xs:complexType</text><path d="M310 2075 C320 2075 310 2075 320 2075" style="fill:transparent;stroke:black" /><rect x="470" y="2060" width="140" height="30" style="fill:white;stroke:black;stroke-width:1" /><text x="480" y="2070" font-size="10" style="fill:blue">xs:simpleContent</text><path d="M460 2075 C470 2075 460 2075 470 2075" style="fill:transparent;stroke:black" /><rect x="620" y="2060" width="140" height="30" style="fill:white;stroke:black;stroke-width:1" /><text x="630" y="2070" font-size="10" style="fill:blue">xs:extension</text><path d="M610 2075 C620 2075 610 2075 620 2075" style="fill:transparent;stroke:black" /><text x="630" y="2080" font-size="8" style="fill:black">base: xs:string</text><rect x="770" y="2060" width="140" height="30" style="fill:white;stroke:black;stroke-width:1" /><text x="780" y="2070" font-size="10" style="fill:blue">xs:attribute</text><path d="M760 2075 C770 2075 760 2075 770 2075" style="fill:transparent;stroke:black" /><text x="780" y="2080" font-size="8" style="fill:black">name: fuente</text><text x="780" y="2090" font-size="8" style="fill:black">type: xs:string</text><text x="780" y="2100" font-size="8" style="fill:black">use: required</text><rect x="770" y="2100" width="140" height="30" style="fill:white;stroke:black;stroke-width:1" /><text x="780" y="2110" font-size="10" style="fill:blue">xs:attribute</text><path d="M760 2075 C770 2075 760 2115 770 2115" style="fill:transparent;stroke:black" /><text x="780" y="2120" font-size="8" style="fill:black">name: enlace</text><text x="780" y="2130" font-size="8" style="fill:black">type: xs:string</text><text x="780" y="2140" font-size="8" style="fill:black">use: required</text><rect x="170" y="2300" width="140" height="30" style="fill:white;stroke:black;stroke-width:1" /><text x="180" y="2310" font-size="10" style="fill:blue">xs:element</text><path d="M160 35 C170 35 160 2315 170 2315" style="fill:transparent;stroke:black" /><text x="180" y="2320" font-size="8" style="fill:black">name: fotografias</text><rect x="320" y="2300" width="140" height="30" style="fill:white;stroke:black;stroke-width:1" /><text x="330" y="2310" font-size="10" style="fill:blue">xs:complexType</text><path d="M310 2315 C320 2315 310 2315 320 2315" style="fill:transparent;stroke:black" /><rect x="470" y="2300" width="140" height="30" style="fill:white;stroke:black;stroke-width:1" /><text x="480" y="2310" font-size="10" style="fill:blue">xs:sequence</text><path d="M460 2315 C470 2315 460 2315 470 2315" style="fill:transparent;stroke:black" /><rect x="620" y="2300" width="140" height="30" style="fill:white;stroke:black;stroke-width:1" /><text x="630" y="2310" font-size="10" style="fill:blue">xs:element</text><path d="M610 2315 C620 2315 610 2315 620 2315" style="fill:transparent;stroke:black" /><text x="630" y="2320" font-size="8" style="fill:black">minOccurs: 1</text><text x="630" y="2330" font-size="8" style="fill:black">maxOccurs: 5</text><text x="630" y="2340" font-size="8" style="fill:black">ref: fotografia</text><rect x="170" y="2460" width="140" height="30" style="fill:white;stroke:black;stroke-width:1" /><text x="180" y="2470" font-size="10" style="fill:blue">xs:element</text><path d="M160 35 C170 35 160 2475 170 2475" style="fill:transparent;stroke:black" /><text x="180" y="2480" font-size="8" style="fill:black">name: fotografia</text><rect x="320" y="2460" width="140" height="30" style="fill:white;stroke:black;stroke-width:1" /><text x="330" y="2470" font-size="10" style="fill:blue">xs:complexType</text><path d="M310 2475 C320 2475 310 2475 320 2475" style="fill:transparent;stroke:black" /><rect x="470" y="2460" width="140" height="30" style="fill:white;stroke:black;stroke-width:1" /><text x="480" y="2470" font-size="10" style="fill:blue">xs:attribute</text><path d="M460 2475 C470 2475 460 2475 470 2475" style="fill:transparent;stroke:black" /><text x="480" y="2480" font-size="8" style="fill:black">name: url</text><text x="480" y="2490" font-size="8" style="fill:black">type: xs:string</text><text x="480" y="2500" font-size="8" style="fill:black">use: required</text><rect x="470" y="2500" width="140" height="30" style="fill:white;stroke:black;stroke-width:1" /><text x="480" y="2510" font-size="10" style="fill:blue">xs:attribute</text><path d="M460 2475 C470 2475 460 2515 470 2515" style="fill:transparent;stroke:black" /><text x="480" y="2520" font-size="8" style="fill:black">name: descripcion</text><text x="480" y="2530" font-size="8" style="fill:black">type: xs:string</text><rect x="170" y="2620" width="140" height="30" style="fill:white;stroke:black;stroke-width:1" /><text x="180" y="2630" font-size="10" style="fill:blue">xs:element</text><path d="M160 35 C170 35 160 2635 170 2635" style="fill:transparent;stroke:black" /><text x="180" y="2640" font-size="8" style="fill:black">name: videos</text><rect x="320" y="2620" width="140" height="30" style="fill:white;stroke:black;stroke-width:1" /><text x="330" y="2630" font-size="10" style="fill:blue">xs:complexType</text><path d="M310 2635 C320 2635 310 2635 320 2635" style="fill:transparent;stroke:black" /><rect x="470" y="2620" width="140" height="30" style="fill:white;stroke:black;stroke-width:1" /><text x="480" y="2630" font-size="10" style="fill:blue">xs:sequence</text><path d="M460 2635 C470 2635 460 2635 470 2635" style="fill:transparent;stroke:black" /><rect x="620" y="2620" width="140" height="30" style="fill:white;stroke:black;stroke-width:1" /><text x="630" y="2630" font-size="10" style="fill:blue">xs:element</text><path d="M610 2635 C620 2635 610 2635 620 2635" style="fill:transparent;stroke:black" /><text x="630" y="2640" font-size="8" style="fill:black">minOccurs: 1</text><text x="630" y="2650" font-size="8" style="fill:black">maxOccurs: 3</text><text x="630" y="2660" font-size="8" style="fill:black">ref: video</text><rect x="170" y="2780" width="140" height="30" style="fill:white;stroke:black;stroke-width:1" /><text x="180" y="2790" font-size="10" style="fill:blue">xs:element</text><path d="M160 35 C170 35 160 2795 170 2795" style="fill:transparent;stroke:black" /><text x="180" y="2800" font-size="8" style="fill:black">name: video</text><rect x="320" y="2780" width="140" height="30" style="fill:white;stroke:black;stroke-width:1" /><text x="330" y="2790" font-size="10" style="fill:blue">xs:complexType</text><path d="M310 2795 C320 2795 310 2795 320 2795" style="fill:transparent;stroke:black" /><rect x="470" y="2780" width="140" height="30" style="fill:white;stroke:black;stroke-width:1" /><text x="480" y="2790" font-size="10" style="fill:blue">xs:attribute</text><path d="M460 2795 C470 2795 460 2795 470 2795" style="fill:transparent;stroke:black" /><text x="480" y="2800" font-size="8" style="fill:black">name: url</text><text x="480" y="2810" font-size="8" style="fill:black">type: xs:string</text><text x="480" y="2820" font-size="8" style="fill:black">use: required</text><rect x="470" y="2820" width="140" height="30" style="fill:white;stroke:black;stroke-width:1" /><text x="480" y="2830" font-size="10" style="fill:blue">xs:attribute</text><path d="M460 2795 C470 2795 460 2835 470 2835" style="fill:transparent;stroke:black" /><text x="480" y="2840" font-size="8" style="fill:black">name: descripcion</text><text x="480" y="2850" font-size="8" style="fill:black">type: xs:string</text><rect x="170" y="2940" width="140" height="30" style="fill:white;stroke:black;stroke-width:1" /><text x="180" y="2950" font-size="10" style="fill:blue">xs:element</text><path d="M160 35 C170 35 160 2955 170 2955" style="fill:transparent;stroke:black" /><text x="180" y="2960" font-size="8" style="fill:black">name: puntoOrigen</text><rect x="320" y="2940" width="140" height="30" style="fill:white;stroke:black;stroke-width:1" /><text x="330" y="2950" font-size="10" style="fill:blue">xs:complexType</text><path d="M310 2955 C320 2955 310 2955 320 2955" style="fill:transparent;stroke:black" /><rect x="470" y="2940" width="140" height="30" style="fill:white;stroke:black;stroke-width:1" /><text x="480" y="2950" font-size="10" style="fill:blue">xs:sequence</text><path d="M460 2955 C470 2955 460 2955 470 2955" style="fill:transparent;stroke:black" /><rect x="620" y="2940" width="140" height="30" style="fill:white;stroke:black;stroke-width:1" /><text x="630" y="2950" font-size="10" style="fill:blue">xs:element</text><path d="M610 2955 C620 2955 610 2955 620 2955" style="fill:transparent;stroke:black" /><text x="630" y="2960" font-size="8" style="fill:black">ref: longitudPunto</text><rect x="620" y="2980" width="140" height="30" style="fill:white;stroke:black;stroke-width:1" /><text x="630" y="2990" font-size="10" style="fill:blue">xs:element</text><path d="M610 2955 C620 2955 610 2995 620 2995" style="fill:transparent;stroke:black" /><text x="630" y="3000" font-size="8" style="fill:black">ref: latitud</text><rect x="620" y="3020" width="140" height="30" style="fill:white;stroke:black;stroke-width:1" /><text x="630" y="3030" font-size="10" style="fill:blue">xs:element</text><path d="M610 2955 C620 2955 610 3035 620 3035" style="fill:transparent;stroke:black" /><text x="630" y="3040" font-size="8" style="fill:black">ref: altitud</text><rect x="170" y="3180" width="140" height="30" style="fill:white;stroke:black;stroke-width:1" /><text x="180" y="3190" font-size="10" style="fill:blue">xs:element</text><path d="M160 35 C170 35 160 3195 170 3195" style="fill:transparent;stroke:black" /><text x="180" y="3200" font-size="8" style="fill:black">name: tramos</text><rect x="320" y="3180" width="140" height="30" style="fill:white;stroke:black;stroke-width:1" /><text x="330" y="3190" font-size="10" style="fill:blue">xs:complexType</text><path d="M310 3195 C320 3195 310 3195 320 3195" style="fill:transparent;stroke:black" /><rect x="470" y="3180" width="140" height="30" style="fill:white;stroke:black;stroke-width:1" /><text x="480" y="3190" font-size="10" style="fill:blue">xs:sequence</text><path d="M460 3195 C470 3195 460 3195 470 3195" style="fill:transparent;stroke:black" /><rect x="620" y="3180" width="140" height="30" style="fill:white;stroke:black;stroke-width:1" /><text x="630" y="3190" font-size="10" style="fill:blue">xs:element</text><path d="M610 3195 C620 3195 610 3195 620 3195" style="fill:transparent;stroke:black" /><text x="630" y="3200" font-size="8" style="fill:black">minOccurs: 3</text><text x="630" y="3210" font-size="8" style="fill:black">maxOccurs: unbounded</text><text x="630" y="3220" font-size="8" style="fill:black">ref: tramo</text><rect x="170" y="3340" width="140" height="30" style="fill:white;stroke:black;stroke-width:1" /><text x="180" y="3350" font-size="10" style="fill:blue">xs:element</text><path d="M160 35 C170 35 160 3355 170 3355" style="fill:transparent;stroke:black" /><text x="180" y="3360" font-size="8" style="fill:black">name: tramo</text><rect x="320" y="3340" width="140" height="30" style="fill:white;stroke:black;stroke-width:1" /><text x="330" y="3350" font-size="10" style="fill:blue">xs:complexType</text><path d="M310 3355 C320 3355 310 3355 320 3355" style="fill:transparent;stroke:black" /><rect x="470" y="3340" width="140" height="30" style="fill:white;stroke:black;stroke-width:1" /><text x="480" y="3350" font-size="10" style="fill:blue">xs:sequence</text><path d="M460 3355 C470 3355 460 3355 470 3355" style="fill:transparent;stroke:black" /><rect x="620" y="3340" width="140" height="30" style="fill:white;stroke:black;stroke-width:1" /><text x="630" y="3350" font-size="10" style="fill:blue">xs:element</text><path d="M610 3355 C620 3355 610 3355 620 3355" style="fill:transparent;stroke:black" /><text x="630" y="3360" font-size="8" style="fill:black">ref: punto</text><rect x="620" y="3380" width="140" height="30" style="fill:white;stroke:black;stroke-width:1" /><text x="630" y="3390" font-size="10" style="fill:blue">xs:element</text><path d="M610 3355 C620 3355 610 3395 620 3395" style="fill:transparent;stroke:black" /><text x="630" y="3400" font-size="8" style="fill:black">ref: distancia</text><rect x="620" y="3420" width="140" height="30" style="fill:white;stroke:black;stroke-width:1" /><text x="630" y="3430" font-size="10" style="fill:blue">xs:element</text><path d="M610 3355 C620 3355 610 3435 620 3435" style="fill:transparent;stroke:black" /><text x="630" y="3440" font-size="8" style="fill:black">ref: sector</text><rect x="170" y="3580" width="140" height="30" style="fill:white;stroke:black;stroke-width:1" /><text x="180" y="3590" font-size="10" style="fill:blue">xs:element</text><path d="M160 35 C170 35 160 3595 170 3595" style="fill:transparent;stroke:black" /><text x="180" y="3600" font-size="8" style="fill:black">name: punto</text><rect x="320" y="3580" width="140" height="30" style="fill:white;stroke:black;stroke-width:1" /><text x="330" y="3590" font-size="10" style="fill:blue">xs:complexType</text><path d="M310 3595 C320 3595 310 3595 320 3595" style="fill:transparent;stroke:black" /><rect x="470" y="3580" width="140" height="30" style="fill:white;stroke:black;stroke-width:1" /><text x="480" y="3590" font-size="10" style="fill:blue">xs:sequence</text><path d="M460 3595 C470 3595 460 3595 470 3595" style="fill:transparent;stroke:black" /><rect x="620" y="3580" width="140" height="30" style="fill:white;stroke:black;stroke-width:1" /><text x="630" y="3590" font-size="10" style="fill:blue">xs:element</text><path d="M610 3595 C620 3595 610 3595 620 3595" style="fill:transparent;stroke:black" /><text x="630" y="3600" font-size="8" style="fill:black">ref: longitudPunto</text><rect x="620" y="3620" width="140" height="30" style="fill:white;stroke:black;stroke-width:1" /><text x="630" y="3630" font-size="10" style="fill:blue">xs:element</text><path d="M610 3595 C620 3595 610 3635 620 3635" style="fill:transparent;stroke:black" /><text x="630" y="3640" font-size="8" style="fill:black">ref: latitud</text><rect x="620" y="3660" width="140" height="30" style="fill:white;stroke:black;stroke-width:1" /><text x="630" y="3670" font-size="10" style="fill:blue">xs:element</text><path d="M610 3595 C620 3595 610 3675 620 3675" style="fill:transparent;stroke:black" /><text x="630" y="3680" font-size="8" style="fill:black">ref: altitud</text><rect x="170" y="3820" width="140" height="30" style="fill:white;stroke:black;stroke-width:1" /><text x="180" y="3830" font-size="10" style="fill:blue">xs:element</text><path d="M160 35 C170 35 160 3835 170 3835" style="fill:transparent;stroke:black" /><text x="180" y="3840" font-size="8" style="fill:black">name: longitudPunto</text><rect x="320" y="3820" width="140" height="30" style="fill:white;stroke:black;stroke-width:1" /><text x="330" y="3830" font-size="10" style="fill:blue">xs:complexType</text><path d="M310 3835 C320 3835 310 3835 320 3835" style="fill:transparent;stroke:black" /><rect x="470" y="3820" width="140" height="30" style="fill:white;stroke:black;stroke-width:1" /><text x="480" y="3830" font-size="10" style="fill:blue">xs:simpleContent</text><path d="M460 3835 C470 3835 460 3835 470 3835" style="fill:transparent;stroke:black" /><rect x="620" y="3820" width="140" height="30" style="fill:white;stroke:black;stroke-width:1" /><text x="630" y="3830" font-size="10" style="fill:blue">xs:extension</text><path d="M610 3835 C620 3835 610 3835 620 3835" style="fill:transparent;stroke:black" /><text x="630" y="3840" font-size="8" style="fill:black">base: xs:string</text><rect x="770" y="3820" width="140" height="30" style="fill:white;stroke:black;stroke-width:1" /><text x="780" y="3830" font-size="10" style="fill:blue">xs:attribute</text><path d="M760 3835 C770 3835 760 3835 770 3835" style="fill:transparent;stroke:black" /><text x="780" y="3840" font-size="8" style="fill:black">name: cantidad</text><text x="780" y="3850" font-size="8" style="fill:black">use: required</text><rect x="920" y="3820" width="140" height="30" style="fill:white;stroke:black;stroke-width:1" /><text x="930" y="3830" font-size="10" style="fill:blue">xs:simpleType</text><path d="M910 3835 C920 3835 910 3835 920 3835" style="fill:transparent;stroke:black" /><rect x="1070" y="3820" width="140" height="30" style="fill:white;stroke:black;stroke-width:1" /><text x="1080" y="3830" font-size="10" style="fill:blue">xs:restriction</text><path d="M1060 3835 C1070 3835 1060 3835 1070 3835" style="fill:transparent;stroke:black" /><text x="1080" y="3840" font-size="8" style="fill:black">base: xs:decimal</text><rect x="1220" y="3820" width="140" height="30" style="fill:white;stroke:black;stroke-width:1" /><text x="1230" y="3830" font-size="10" style="fill:blue">xs:minInclusive</text><path d="M1210 3835 C1220 3835 1210 3835 1220 3835" style="fill:transparent;stroke:black" /><text x="1230" y="3840" font-size="8" style="fill:black">value: -180</text><rect x="1220" y="3860" width="140" height="30" style="fill:white;stroke:black;stroke-width:1" /><text x="1230" y="3870" font-size="10" style="fill:blue">xs:maxInclusive</text><path d="M1210 3835 C1220 3835 1210 3875 1220 3875" style="fill:transparent;stroke:black" /><text x="1230" y="3880" font-size="8" style="fill:black">value: 180</text><rect x="770" y="4020" width="140" height="30" style="fill:white;stroke:black;stroke-width:1" /><text x="780" y="4030" font-size="10" style="fill:blue">xs:attribute</text><path d="M760 3835 C770 3835 760 4035 770 4035" style="fill:transparent;stroke:black" /><text x="780" y="4040" font-size="8" style="fill:black">name: unidad</text><text x="780" y="4050" font-size="8" style="fill:black">type: xs:string</text><text x="780" y="4060" font-size="8" style="fill:black">use: required</text><rect x="170" y="4220" width="140" height="30" style="fill:white;stroke:black;stroke-width:1" /><text x="180" y="4230" font-size="10" style="fill:blue">xs:element</text><path d="M160 35 C170 35 160 4235 170 4235" style="fill:transparent;stroke:black" /><text x="180" y="4240" font-size="8" style="fill:black">name: latitud</text><rect x="320" y="4220" width="140" height="30" style="fill:white;stroke:black;stroke-width:1" /><text x="330" y="4230" font-size="10" style="fill:blue">xs:complexType</text><path d="M310 4235 C320 4235 310 4235 320 4235" style="fill:transparent;stroke:black" /><rect x="470" y="4220" width="140" height="30" style="fill:white;stroke:black;stroke-width:1" /><text x="480" y="4230" font-size="10" style="fill:blue">xs:simpleContent</text><path d="M460 4235 C470 4235 460 4235 470 4235" style="fill:transparent;stroke:black" /><rect x="620" y="4220" width="140" height="30" style="fill:white;stroke:black;stroke-width:1" /><text x="630" y="4230" font-size="10" style="fill:blue">xs:extension</text><path d="M610 4235 C620 4235 610 4235 620 4235" style="fill:transparent;stroke:black" /><text x="630" y="4240" font-size="8" style="fill:black">base: xs:string</text><rect x="770" y="4220" width="140" height="30" style="fill:white;stroke:black;stroke-width:1" /><text x="780" y="4230" font-size="10" style="fill:blue">xs:attribute</text><path d="M760 4235 C770 4235 760 4235 770 4235" style="fill:transparent;stroke:black" /><text x="780" y="4240" font-size="8" style="fill:black">name: cantidad</text><text x="780" y="4250" font-size="8" style="fill:black">use: required</text><rect x="920" y="4220" width="140" height="30" style="fill:white;stroke:black;stroke-width:1" /><text x="930" y="4230" font-size="10" style="fill:blue">xs:simpleType</text><path d="M910 4235 C920 4235 910 4235 920 4235" style="fill:transparent;stroke:black" /><rect x="1070" y="4220" width="140" height="30" style="fill:white;stroke:black;stroke-width:1" /><text x="1080" y="4230" font-size="10" style="fill:blue">xs:restriction</text><path d="M1060 4235 C1070 4235 1060 4235 1070 4235" style="fill:transparent;stroke:black" /><text x="1080" y="4240" font-size="8" style="fill:black">base: xs:decimal</text><rect x="1220" y="4220" width="140" height="30" style="fill:white;stroke:black;stroke-width:1" /><text x="1230" y="4230" font-size="10" style="fill:blue">xs:minInclusive</text><path d="M1210 4235 C1220 4235 1210 4235 1220 4235" style="fill:transparent;stroke:black" /><text x="1230" y="4240" font-size="8" style="fill:black">value: -90</text><rect x="1220" y="4260" width="140" height="30" style="fill:white;stroke:black;stroke-width:1" /><text x="1230" y="4270" font-size="10" style="fill:blue">xs:maxInclusive</text><path d="M1210 4235 C1220 4235 1210 4275 1220 4275" style="fill:transparent;stroke:black" /><text x="1230" y="4280" font-size="8" style="fill:black">value: 90</text><rect x="770" y="4420" width="140" height="30" style="fill:white;stroke:black;stroke-width:1" /><text x="780" y="4430" font-size="10" style="fill:blue">xs:attribute</text><path d="M760 4235 C770 4235 760 4435 770 4435" style="fill:transparent;stroke:black" /><text x="780" y="4440" font-size="8" style="fill:black">name: unidad</text><text x="780" y="4450" font-size="8" style="fill:black">type: xs:string</text><text x="780" y="4460" font-size="8" style="fill:black">use: required</text><rect x="170" y="4620" width="140" height="30" style="fill:white;stroke:black;stroke-width:1" /><text x="180" y="4630" font-size="10" style="fill:blue">xs:element</text><path d="M160 35 C170 35 160 4635 170 4635" style="fill:transparent;stroke:black" /><text x="180" y="4640" font-size="8" style="fill:black">name: altitud</text><rect x="320" y="4620" width="140" height="30" style="fill:white;stroke:black;stroke-width:1" /><text x="330" y="4630" font-size="10" style="fill:blue">xs:complexType</text><path d="M310 4635 C320 4635 310 4635 320 4635" style="fill:transparent;stroke:black" /><rect x="470" y="4620" width="140" height="30" style="fill:white;stroke:black;stroke-width:1" /><text x="480" y="4630" font-size="10" style="fill:blue">xs:simpleContent</text><path d="M460 4635 C470 4635 460 4635 470 4635" style="fill:transparent;stroke:black" /><rect x="620" y="4620" width="140" height="30" style="fill:white;stroke:black;stroke-width:1" /><text x="630" y="4630" font-size="10" style="fill:blue">xs:extension</text><path d="M610 4635 C620 4635 610 4635 620 4635" style="fill:transparent;stroke:black" /><text x="630" y="4640" font-size="8" style="fill:black">base: xs:string</text><rect x="770" y="4620" width="140" height="30" style="fill:white;stroke:black;stroke-width:1" /><text x="780" y="4630" font-size="10" style="fill:blue">xs:attribute</text><path d="M760 4635 C770 4635 760 4635 770 4635" style="fill:transparent;stroke:black" /><text x="780" y="4640" font-size="8" style="fill:black">name: cantidad</text><text x="780" y="4650" font-size="8" style="fill:black">use: required</text><rect x="920" y="4620" width="140" height="30" style="fill:white;stroke:black;stroke-width:1" /><text x="930" y="4630" font-size="10" style="fill:blue">xs:simpleType</text><path d="M910 4635 C920 4635 910 4635 920 4635" style="fill:transparent;stroke:black" /><rect x="1070" y="4620" width="140" height="30" style="fill:white;stroke:black;stroke-width:1" /><text x="1080" y="4630" font-size="10" style="fill:blue">xs:restriction</text><path d="M1060 4635 C1070 4635 1060 4635 1070 4635" style="fill:transparent;stroke:black" /><text x="1080" y="4640" font-size="8" style="fill:black">base: xs:decimal</text><rect x="1220" y="4620" width="140" height="30" style="fill:white;stroke:black;stroke-width:1" /><text x="1230" y="4630" font-size="10" style="fill:blue">xs:minInclusive</text><path d="M1210 4635 C1220 4635 1210 4635 1220 4635" style="fill:transparent;stroke:black" /><text x="1230" y="4640" font-size="8" style="fill:black">value: 0</text><rect x="1220" y="4660" width="140" height="30" style="fill:white;stroke:black;stroke-width:1" /><text x="1230" y="4670" font-size="10" style="fill:blue">xs:maxInclusive</text><path d="M1210 4635 C1220 4635 1210 4675 1220 4675" style="fill:transparent;stroke:black" /><text x="1230" y="4680" font-size="8" style="fill:black">value: 5000</text><rect x="770" y="4820" width="140" height="30" style="fill:white;stroke:black;stroke-width:1" /><text x="780" y="4830" font-size="10" style="fill:blue">xs:attribute</text><path d="M760 4635 C770 4635 760 4835 770 4835" style="fill:transparent;stroke:black" /><text x="780" y="4840" font-size="8" style="fill:black">name: unidad</text><text x="780" y="4850" font-size="8" style="fill:black">type: xs:string</text><text x="780" y="4860" font-size="8" style="fill:black">use: required</text><rect x="170" y="5020" width="140" height="30" style="fill:white;stroke:black;stroke-width:1" /><text x="180" y="5030" font-size="10" style="fill:blue">xs:element</text><path d="M160 35 C170 35 160 5035 170 5035" style="fill:transparent;stroke:black" /><text x="180" y="5040" font-size="8" style="fill:black">name: distancia</text><rect x="320" y="5020" width="140" height="30" style="fill:white;stroke:black;stroke-width:1" /><text x="330" y="5030" font-size="10" style="fill:blue">xs:complexType</text><path d="M310 5035 C320 5035 310 5035 320 5035" style="fill:transparent;stroke:black" /><rect x="470" y="5020" width="140" height="30" style="fill:white;stroke:black;stroke-width:1" /><text x="480" y="5030" font-size="10" style="fill:blue">xs:simpleContent</text><path d="M460 5035 C470 5035 460 5035 470 5035" style="fill:transparent;stroke:black" /><rect x="620" y="5020" width="140" height="30" style="fill:white;stroke:black;stroke-width:1" /><text x="630" y="5030" font-size="10" style="fill:blue">xs:extension</text><path d="M610 5035 C620 5035 610 5035 620 5035" style="fill:transparent;stroke:black" /><text x="630" y="5040" font-size="8" style="fill:black">base: xs:string</text><rect x="770" y="5020" width="140" height="30" style="fill:white;stroke:black;stroke-width:1" /><text x="780" y="5030" font-size="10" style="fill:blue">xs:attribute</text><path d="M760 5035 C770 5035 760 5035 770 5035" style="fill:transparent;stroke:black" /><text x="780" y="5040" font-size="8" style="fill:black">name: cantidad</text><text x="780" y="5050" font-size="8" style="fill:black">type: xs:decimal</text><text x="780" y="5060" font-size="8" style="fill:black">use: required</text><rect x="770" y="5060" width="140" height="30" style="fill:white;stroke:black;stroke-width:1" /><text x="780" y="5070" font-size="10" style="fill:blue">xs:attribute</text><path d="M760 5035 C770 5035 760 5075 770 5075" style="fill:transparent;stroke:black" /><text x="780" y="5080" font-size="8" style="fill:black">name: unidad</text><text x="780" y="5090" font-size="8" style="fill:black">type: xs:string</text><text x="780" y="5100" font-size="8" style="fill:black">use: required</text><rect x="170" y="5260" width="140" height="30" style="fill:white;stroke:black;stroke-width:1" /><text x="180" y="5270" font-size="10" style="fill:blue">xs:element</text><path d="M160 35 C170 35 160 5275 170 5275" style="fill:transparent;stroke:black" /><text x="180" y="5280" font-size="8" style="fill:black">name: sector</text><text x="180" y="5290" font-size="8" style="fill:black">type: xs:integer</text><rect x="170" y="5300" width="140" height="30" style="fill:white;stroke:black;stroke-width:1" /><text x="180" y="5310" font-size="10" style="fill:blue">xs:element</text><path d="M160 35 C170 35 160 5315 170 5315" style="fill:transparent;stroke:black" /><text x="180" y="5320" font-size="8" style="fill:black">name: vencedor</text><text x="180" y="5330" font-size="8" style="fill:black">type: xs:string</text><rect x="170" y="5340" width="140" height="30" style="fill:white;stroke:black;stroke-width:1" /><text x="180" y="5350" font-size="10" style="fill:blue">xs:element</text><path d="M160 35 C170 35 160 5355 170 5355" style="fill:transparent;stroke:black" /><text x="180" y="5360" font-size="8" style="fill:black">name: tiempoVencedor</text><text x="180" y="5370" font-size="8" style="fill:black">type: xs:duration</text><rect x="170" y="5380" width="140" height="30" style="fill:white;stroke:black;stroke-width:1" /><text x="180" y="5390" font-size="10" style="fill:blue">xs:element</text><path d="M160 35 C170 35 160 5395 170 5395" style="fill:transparent;stroke:black" /><text x="180" y="5400" font-size="8" style="fill:black">name: clasificados</text><rect x="320" y="5380" width="140" height="30" style="fill:white;stroke:black;stroke-width:1" /><text x="330" y="5390" font-size="10" style="fill:blue">xs:complexType</text><path d="M310 5395 C320 5395 310 5395 320 5395" style="fill:transparent;stroke:black" /><rect x="470" y="5380" width="140" height="30" style="fill:white;stroke:black;stroke-width:1" /><text x="480" y="5390" font-size="10" style="fill:blue">xs:sequence</text><path d="M460 5395 C470 5395 460 5395 470 5395" style="fill:transparent;stroke:black" /><rect x="620" y="5380" width="140" height="30" style="fill:white;stroke:black;stroke-width:1" /><text x="630" y="5390" font-size="10" style="fill:blue">xs:element</text><path d="M610 5395 C620 5395 610 5395 620 5395" style="fill:transparent;stroke:black" /><text x="630" y="5400" font-size="8" style="fill:black">minOccurs: 3</text><text x="630" y="5410" font-size="8" style="fill:black">maxOccurs: 3</text><text x="630" y="5420" font-size="8" style="fill:black">ref: clasificado</text><rect x="170" y="5540" width="140" height="30" style="fill:white;stroke:black;stroke-width:1" /><text x="180" y="5550" font-size="10" style="fill:blue">xs:element</text><path d="M160 35 C170 35 160 5555 170 5555" style="fill:transparent;stroke:black" /><text x="180" y="5560" font-size="8" style="fill:black">name: clasificado</text><text x="180" y="5570" font-size="8" style="fill:black">type: xs:string</text></svg>