<?xml version="1.0" encoding="utf-8"?><svg width="auto" height="7020" style="overflow:visible " version="1.1" xmlns="http://www.w3.org/2000/svg"><rect x="20" y="20" width="200" height="40" style="fill:white;stroke:black;stroke-width:1" /><text x="30" y="30" font-size="10" style="fill:blue">xs:schema</text><text x="30" y="40" font-size="8" style="fill:black">xmlns:xs: http://www.w3.org/2001/XMLSchema</text><text x="30" y="50" font-size="8" style="fill:black">targetNamespace: http://www.uniovi.es</text><text x="30" y="60" font-size="8" style="fill:black">xmlns: http://www.uniovi.es</text><text x="30" y="70" font-size="8" style="fill:black">elementFormDefault: qualified</text><rect x="240" y="20" width="200" height="40" style="fill:white;stroke:black;stroke-width:1" /><text x="250" y="30" font-size="10" style="fill:blue">xs:element</text><path d="M220 40 C240 40 220 40 240 40" style="fill:transparent;stroke:black" /><text x="250" y="40" font-size="8" style="fill:black">name: circuito</text><rect x="460" y="20" width="200" height="40" style="fill:white;stroke:black;stroke-width:1" /><text x="470" y="30" font-size="10" style="fill:blue">xs:complexType</text><path d="M440 40 C460 40 440 40 460 40" style="fill:transparent;stroke:black" /><rect x="680" y="20" width="200" height="40" style="fill:white;stroke:black;stroke-width:1" /><text x="690" y="30" font-size="10" style="fill:blue">xs:sequence</text><path d="M660 40 C680 40 660 40 680 40" style="fill:transparent;stroke:black" /><rect x="900" y="20" width="200" height="40" style="fill:white;stroke:black;stroke-width:1" /><text x="910" y="30" font-size="10" style="fill:blue">xs:element</text><path d="M880 40 C900 40 880 40 900 40" style="fill:transparent;stroke:black" /><text x="910" y="40" font-size="8" style="fill:black">ref: nombre</text><rect x="900" y="70" width="200" height="40" style="fill:white;stroke:black;stroke-width:1" /><text x="910" y="80" font-size="10" style="fill:blue">xs:element</text><path d="M880 40 C900 40 880 90 900 90" style="fill:transparent;stroke:black" /><text x="910" y="90" font-size="8" style="fill:black">ref: longitud</text><rect x="900" y="120" width="200" height="40" style="fill:white;stroke:black;stroke-width:1" /><text x="910" y="130" font-size="10" style="fill:blue">xs:element</text><path d="M880 40 C900 40 880 140 900 140" style="fill:transparent;stroke:black" /><text x="910" y="140" font-size="8" style="fill:black">ref: anchuraMedia</text><rect x="900" y="170" width="200" height="40" style="fill:white;stroke:black;stroke-width:1" /><text x="910" y="180" font-size="10" style="fill:blue">xs:element</text><path d="M880 40 C900 40 880 190 900 190" style="fill:transparent;stroke:black" /><text x="910" y="190" font-size="8" style="fill:black">ref: fecha</text><rect x="900" y="220" width="200" height="40" style="fill:white;stroke:black;stroke-width:1" /><text x="910" y="230" font-size="10" style="fill:blue">xs:element</text><path d="M880 40 C900 40 880 240 900 240" style="fill:transparent;stroke:black" /><text x="910" y="240" font-size="8" style="fill:black">ref: horaInicio</text><rect x="900" y="270" width="200" height="40" style="fill:white;stroke:black;stroke-width:1" /><text x="910" y="280" font-size="10" style="fill:blue">xs:element</text><path d="M880 40 C900 40 880 290 900 290" style="fill:transparent;stroke:black" /><text x="910" y="290" font-size="8" style="fill:black">ref: numeroVueltas</text><rect x="900" y="320" width="200" height="40" style="fill:white;stroke:black;stroke-width:1" /><text x="910" y="330" font-size="10" style="fill:blue">xs:element</text><path d="M880 40 C900 40 880 340 900 340" style="fill:transparent;stroke:black" /><text x="910" y="340" font-size="8" style="fill:black">ref: localidadProxima</text><rect x="900" y="370" width="200" height="40" style="fill:white;stroke:black;stroke-width:1" /><text x="910" y="380" font-size="10" style="fill:blue">xs:element</text><path d="M880 40 C900 40 880 390 900 390" style="fill:transparent;stroke:black" /><text x="910" y="390" font-size="8" style="fill:black">ref: pais</text><rect x="900" y="420" width="200" height="40" style="fill:white;stroke:black;stroke-width:1" /><text x="910" y="430" font-size="10" style="fill:blue">xs:element</text><path d="M880 40 C900 40 880 440 900 440" style="fill:transparent;stroke:black" /><text x="910" y="440" font-size="8" style="fill:black">ref: patrocinador</text><rect x="900" y="470" width="200" height="40" style="fill:white;stroke:black;stroke-width:1" /><text x="910" y="480" font-size="10" style="fill:blue">xs:element</text><path d="M880 40 C900 40 880 490 900 490" style="fill:transparent;stroke:black" /><text x="910" y="490" font-size="8" style="fill:black">ref: referencias</text><rect x="900" y="520" width="200" height="40" style="fill:white;stroke:black;stroke-width:1" /><text x="910" y="530" font-size="10" style="fill:blue">xs:element</text><path d="M880 40 C900 40 880 540 900 540" style="fill:transparent;stroke:black" /><text x="910" y="540" font-size="8" style="fill:black">ref: fotografias</text><rect x="900" y="570" width="200" height="40" style="fill:white;stroke:black;stroke-width:1" /><text x="910" y="580" font-size="10" style="fill:blue">xs:element</text><path d="M880 40 C900 40 880 590 900 590" style="fill:transparent;stroke:black" /><text x="910" y="590" font-size="8" style="fill:black">ref: videos</text><rect x="900" y="620" width="200" height="40" style="fill:white;stroke:black;stroke-width:1" /><text x="910" y="630" font-size="10" style="fill:blue">xs:element</text><path d="M880 40 C900 40 880 640 900 640" style="fill:transparent;stroke:black" /><text x="910" y="640" font-size="8" style="fill:black">ref: puntoOrigen</text><rect x="900" y="670" width="200" height="40" style="fill:white;stroke:black;stroke-width:1" /><text x="910" y="680" font-size="10" style="fill:blue">xs:element</text><path d="M880 40 C900 40 880 690 900 690" style="fill:transparent;stroke:black" /><text x="910" y="690" font-size="8" style="fill:black">ref: tramos</text><rect x="900" y="720" width="200" height="40" style="fill:white;stroke:black;stroke-width:1" /><text x="910" y="730" font-size="10" style="fill:blue">xs:element</text><path d="M880 40 C900 40 880 740 900 740" style="fill:transparent;stroke:black" /><text x="910" y="740" font-size="8" style="fill:black">ref: vencedor</text><rect x="900" y="770" width="200" height="40" style="fill:white;stroke:black;stroke-width:1" /><text x="910" y="780" font-size="10" style="fill:blue">xs:element</text><path d="M880 40 C900 40 880 790 900 790" style="fill:transparent;stroke:black" /><text x="910" y="790" font-size="8" style="fill:black">ref: tiempoVencedor</text><rect x="900" y="820" width="200" height="40" style="fill:white;stroke:black;stroke-width:1" /><text x="910" y="830" font-size="10" style="fill:blue">xs:element</text><path d="M880 40 C900 40 880 840 900 840" style="fill:transparent;stroke:black" /><text x="910" y="840" font-size="8" style="fill:black">ref: clasificados</text><rect x="240" y="1020" width="200" height="40" style="fill:white;stroke:black;stroke-width:1" /><text x="250" y="1030" font-size="10" style="fill:blue">xs:element</text><path d="M220 40 C240 40 220 1040 240 1040" style="fill:transparent;stroke:black" /><text x="250" y="1040" font-size="8" style="fill:black">name: nombre</text><text x="250" y="1050" font-size="8" style="fill:black">type: xs:string</text><rect x="240" y="1070" width="200" height="40" style="fill:white;stroke:black;stroke-width:1" /><text x="250" y="1080" font-size="10" style="fill:blue">xs:element</text><path d="M220 40 C240 40 220 1090 240 1090" style="fill:transparent;stroke:black" /><text x="250" y="1090" font-size="8" style="fill:black">name: longitud</text><rect x="460" y="1070" width="200" height="40" style="fill:white;stroke:black;stroke-width:1" /><text x="470" y="1080" font-size="10" style="fill:blue">xs:complexType</text><path d="M440 1090 C460 1090 440 1090 460 1090" style="fill:transparent;stroke:black" /><rect x="680" y="1070" width="200" height="40" style="fill:white;stroke:black;stroke-width:1" /><text x="690" y="1080" font-size="10" style="fill:blue">xs:simpleContent</text><path d="M660 1090 C680 1090 660 1090 680 1090" style="fill:transparent;stroke:black" /><rect x="900" y="1070" width="200" height="40" style="fill:white;stroke:black;stroke-width:1" /><text x="910" y="1080" font-size="10" style="fill:blue">xs:extension</text><path d="M880 1090 C900 1090 880 1090 900 1090" style="fill:transparent;stroke:black" /><text x="910" y="1090" font-size="8" style="fill:black">base: xs:string</text><rect x="1120" y="1070" width="200" height="40" style="fill:white;stroke:black;stroke-width:1" /><text x="1130" y="1080" font-size="10" style="fill:blue">xs:attribute</text><path d="M1100 1090 C1120 1090 1100 1090 1120 1090" style="fill:transparent;stroke:black" /><text x="1130" y="1090" font-size="8" style="fill:black">name: cantidad</text><text x="1130" y="1100" font-size="8" style="fill:black">use: required</text><rect x="1340" y="1070" width="200" height="40" style="fill:white;stroke:black;stroke-width:1" /><text x="1350" y="1080" font-size="10" style="fill:blue">xs:simpleType</text><path d="M1320 1090 C1340 1090 1320 1090 1340 1090" style="fill:transparent;stroke:black" /><rect x="1560" y="1070" width="200" height="40" style="fill:white;stroke:black;stroke-width:1" /><text x="1570" y="1080" font-size="10" style="fill:blue">xs:restriction</text><path d="M1540 1090 C1560 1090 1540 1090 1560 1090" style="fill:transparent;stroke:black" /><text x="1570" y="1090" font-size="8" style="fill:black">base: xs:decimal</text><rect x="1780" y="1070" width="200" height="40" style="fill:white;stroke:black;stroke-width:1" /><text x="1790" y="1080" font-size="10" style="fill:blue">xs:minInclusive</text><path d="M1760 1090 C1780 1090 1760 1090 1780 1090" style="fill:transparent;stroke:black" /><text x="1790" y="1090" font-size="8" style="fill:black">value: 0</text><rect x="1780" y="1120" width="200" height="40" style="fill:white;stroke:black;stroke-width:1" /><text x="1790" y="1130" font-size="10" style="fill:blue">xs:maxInclusive</text><path d="M1760 1090 C1780 1090 1760 1140 1780 1140" style="fill:transparent;stroke:black" /><text x="1790" y="1140" font-size="8" style="fill:black">value: 10000</text><rect x="1120" y="1320" width="200" height="40" style="fill:white;stroke:black;stroke-width:1" /><text x="1130" y="1330" font-size="10" style="fill:blue">xs:attribute</text><path d="M1100 1090 C1120 1090 1100 1340 1120 1340" style="fill:transparent;stroke:black" /><text x="1130" y="1340" font-size="8" style="fill:black">name: unidad</text><text x="1130" y="1350" font-size="8" style="fill:black">type: xs:string</text><text x="1130" y="1360" font-size="8" style="fill:black">use: required</text><rect x="240" y="1570" width="200" height="40" style="fill:white;stroke:black;stroke-width:1" /><text x="250" y="1580" font-size="10" style="fill:blue">xs:element</text><path d="M220 40 C240 40 220 1590 240 1590" style="fill:transparent;stroke:black" /><text x="250" y="1590" font-size="8" style="fill:black">name: anchuraMedia</text><rect x="460" y="1570" width="200" height="40" style="fill:white;stroke:black;stroke-width:1" /><text x="470" y="1580" font-size="10" style="fill:blue">xs:complexType</text><path d="M440 1590 C460 1590 440 1590 460 1590" style="fill:transparent;stroke:black" /><rect x="680" y="1570" width="200" height="40" style="fill:white;stroke:black;stroke-width:1" /><text x="690" y="1580" font-size="10" style="fill:blue">xs:simpleContent</text><path d="M660 1590 C680 1590 660 1590 680 1590" style="fill:transparent;stroke:black" /><rect x="900" y="1570" width="200" height="40" style="fill:white;stroke:black;stroke-width:1" /><text x="910" y="1580" font-size="10" style="fill:blue">xs:extension</text><path d="M880 1590 C900 1590 880 1590 900 1590" style="fill:transparent;stroke:black" /><text x="910" y="1590" font-size="8" style="fill:black">base: xs:string</text><rect x="1120" y="1570" width="200" height="40" style="fill:white;stroke:black;stroke-width:1" /><text x="1130" y="1580" font-size="10" style="fill:blue">xs:attribute</text><path d="M1100 1590 C1120 1590 1100 1590 1120 1590" style="fill:transparent;stroke:black" /><text x="1130" y="1590" font-size="8" style="fill:black">name: cantidad</text><text x="1130" y="1600" font-size="8" style="fill:black">type: xs:decimal</text><text x="1130" y="1610" font-size="8" style="fill:black">use: required</text><rect x="1120" y="1620" width="200" height="40" style="fill:white;stroke:black;stroke-width:1" /><text x="1130" y="1630" font-size="10" style="fill:blue">xs:attribute</text><path d="M1100 1590 C1120 1590 1100 1640 1120 1640" style="fill:transparent;stroke:black" /><text x="1130" y="1640" font-size="8" style="fill:black">name: unidad</text><text x="1130" y="1650" font-size="8" style="fill:black">type: xs:string</text><text x="1130" y="1660" font-size="8" style="fill:black">use: required</text><rect x="240" y="1870" width="200" height="40" style="fill:white;stroke:black;stroke-width:1" /><text x="250" y="1880" font-size="10" style="fill:blue">xs:element</text><path d="M220 40 C240 40 220 1890 240 1890" style="fill:transparent;stroke:black" /><text x="250" y="1890" font-size="8" style="fill:black">name: fecha</text><text x="250" y="1900" font-size="8" style="fill:black">type: xs:date</text><rect x="240" y="1920" width="200" height="40" style="fill:white;stroke:black;stroke-width:1" /><text x="250" y="1930" font-size="10" style="fill:blue">xs:element</text><path d="M220 40 C240 40 220 1940 240 1940" style="fill:transparent;stroke:black" /><text x="250" y="1940" font-size="8" style="fill:black">name: horaInicio</text><text x="250" y="1950" font-size="8" style="fill:black">type: xs:time</text><rect x="240" y="1970" width="200" height="40" style="fill:white;stroke:black;stroke-width:1" /><text x="250" y="1980" font-size="10" style="fill:blue">xs:element</text><path d="M220 40 C240 40 220 1990 240 1990" style="fill:transparent;stroke:black" /><text x="250" y="1990" font-size="8" style="fill:black">name: numeroVueltas</text><rect x="460" y="1970" width="200" height="40" style="fill:white;stroke:black;stroke-width:1" /><text x="470" y="1980" font-size="10" style="fill:blue">xs:simpleType</text><path d="M440 1990 C460 1990 440 1990 460 1990" style="fill:transparent;stroke:black" /><rect x="680" y="1970" width="200" height="40" style="fill:white;stroke:black;stroke-width:1" /><text x="690" y="1980" font-size="10" style="fill:blue">xs:restriction</text><path d="M660 1990 C680 1990 660 1990 680 1990" style="fill:transparent;stroke:black" /><text x="690" y="1990" font-size="8" style="fill:black">base: xs:positiveInteger</text><rect x="900" y="1970" width="200" height="40" style="fill:white;stroke:black;stroke-width:1" /><text x="910" y="1980" font-size="10" style="fill:blue">xs:minInclusive</text><path d="M880 1990 C900 1990 880 1990 900 1990" style="fill:transparent;stroke:black" /><text x="910" y="1990" font-size="8" style="fill:black">value: 15</text><rect x="900" y="2020" width="200" height="40" style="fill:white;stroke:black;stroke-width:1" /><text x="910" y="2030" font-size="10" style="fill:blue">xs:maxInclusive</text><path d="M880 1990 C900 1990 880 2040 900 2040" style="fill:transparent;stroke:black" /><text x="910" y="2040" font-size="8" style="fill:black">value: 35</text><rect x="240" y="2220" width="200" height="40" style="fill:white;stroke:black;stroke-width:1" /><text x="250" y="2230" font-size="10" style="fill:blue">xs:element</text><path d="M220 40 C240 40 220 2240 240 2240" style="fill:transparent;stroke:black" /><text x="250" y="2240" font-size="8" style="fill:black">name: localidadProxima</text><text x="250" y="2250" font-size="8" style="fill:black">type: xs:string</text><rect x="240" y="2270" width="200" height="40" style="fill:white;stroke:black;stroke-width:1" /><text x="250" y="2280" font-size="10" style="fill:blue">xs:element</text><path d="M220 40 C240 40 220 2290 240 2290" style="fill:transparent;stroke:black" /><text x="250" y="2290" font-size="8" style="fill:black">name: pais</text><text x="250" y="2300" font-size="8" style="fill:black">type: xs:string</text><rect x="240" y="2320" width="200" height="40" style="fill:white;stroke:black;stroke-width:1" /><text x="250" y="2330" font-size="10" style="fill:blue">xs:element</text><path d="M220 40 C240 40 220 2340 240 2340" style="fill:transparent;stroke:black" /><text x="250" y="2340" font-size="8" style="fill:black">name: patrocinador</text><text x="250" y="2350" font-size="8" style="fill:black">type: xs:string</text><rect x="240" y="2370" width="200" height="40" style="fill:white;stroke:black;stroke-width:1" /><text x="250" y="2380" font-size="10" style="fill:blue">xs:element</text><path d="M220 40 C240 40 220 2390 240 2390" style="fill:transparent;stroke:black" /><text x="250" y="2390" font-size="8" style="fill:black">name: referencias</text><rect x="460" y="2370" width="200" height="40" style="fill:white;stroke:black;stroke-width:1" /><text x="470" y="2380" font-size="10" style="fill:blue">xs:complexType</text><path d="M440 2390 C460 2390 440 2390 460 2390" style="fill:transparent;stroke:black" /><rect x="680" y="2370" width="200" height="40" style="fill:white;stroke:black;stroke-width:1" /><text x="690" y="2380" font-size="10" style="fill:blue">xs:sequence</text><path d="M660 2390 C680 2390 660 2390 680 2390" style="fill:transparent;stroke:black" /><rect x="900" y="2370" width="200" height="40" style="fill:white;stroke:black;stroke-width:1" /><text x="910" y="2380" font-size="10" style="fill:blue">xs:element</text><path d="M880 2390 C900 2390 880 2390 900 2390" style="fill:transparent;stroke:black" /><text x="910" y="2390" font-size="8" style="fill:black">minOccurs: 3</text><text x="910" y="2400" font-size="8" style="fill:black">maxOccurs: unbounded</text><text x="910" y="2410" font-size="8" style="fill:black">ref: referencia</text><rect x="240" y="2570" width="200" height="40" style="fill:white;stroke:black;stroke-width:1" /><text x="250" y="2580" font-size="10" style="fill:blue">xs:element</text><path d="M220 40 C240 40 220 2590 240 2590" style="fill:transparent;stroke:black" /><text x="250" y="2590" font-size="8" style="fill:black">name: referencia</text><rect x="460" y="2570" width="200" height="40" style="fill:white;stroke:black;stroke-width:1" /><text x="470" y="2580" font-size="10" style="fill:blue">xs:complexType</text><path d="M440 2590 C460 2590 440 2590 460 2590" style="fill:transparent;stroke:black" /><rect x="680" y="2570" width="200" height="40" style="fill:white;stroke:black;stroke-width:1" /><text x="690" y="2580" font-size="10" style="fill:blue">xs:simpleContent</text><path d="M660 2590 C680 2590 660 2590 680 2590" style="fill:transparent;stroke:black" /><rect x="900" y="2570" width="200" height="40" style="fill:white;stroke:black;stroke-width:1" /><text x="910" y="2580" font-size="10" style="fill:blue">xs:extension</text><path d="M880 2590 C900 2590 880 2590 900 2590" style="fill:transparent;stroke:black" /><text x="910" y="2590" font-size="8" style="fill:black">base: xs:string</text><rect x="1120" y="2570" width="200" height="40" style="fill:white;stroke:black;stroke-width:1" /><text x="1130" y="2580" font-size="10" style="fill:blue">xs:attribute</text><path d="M1100 2590 C1120 2590 1100 2590 1120 2590" style="fill:transparent;stroke:black" /><text x="1130" y="2590" font-size="8" style="fill:black">name: fuente</text><text x="1130" y="2600" font-size="8" style="fill:black">type: xs:string</text><text x="1130" y="2610" font-size="8" style="fill:black">use: required</text><rect x="1120" y="2620" width="200" height="40" style="fill:white;stroke:black;stroke-width:1" /><text x="1130" y="2630" font-size="10" style="fill:blue">xs:attribute</text><path d="M1100 2590 C1120 2590 1100 2640 1120 2640" style="fill:transparent;stroke:black" /><text x="1130" y="2640" font-size="8" style="fill:black">name: enlace</text><text x="1130" y="2650" font-size="8" style="fill:black">type: xs:string</text><text x="1130" y="2660" font-size="8" style="fill:black">use: required</text><rect x="240" y="2870" width="200" height="40" style="fill:white;stroke:black;stroke-width:1" /><text x="250" y="2880" font-size="10" style="fill:blue">xs:element</text><path d="M220 40 C240 40 220 2890 240 2890" style="fill:transparent;stroke:black" /><text x="250" y="2890" font-size="8" style="fill:black">name: fotografias</text><rect x="460" y="2870" width="200" height="40" style="fill:white;stroke:black;stroke-width:1" /><text x="470" y="2880" font-size="10" style="fill:blue">xs:complexType</text><path d="M440 2890 C460 2890 440 2890 460 2890" style="fill:transparent;stroke:black" /><rect x="680" y="2870" width="200" height="40" style="fill:white;stroke:black;stroke-width:1" /><text x="690" y="2880" font-size="10" style="fill:blue">xs:sequence</text><path d="M660 2890 C680 2890 660 2890 680 2890" style="fill:transparent;stroke:black" /><rect x="900" y="2870" width="200" height="40" style="fill:white;stroke:black;stroke-width:1" /><text x="910" y="2880" font-size="10" style="fill:blue">xs:element</text><path d="M880 2890 C900 2890 880 2890 900 2890" style="fill:transparent;stroke:black" /><text x="910" y="2890" font-size="8" style="fill:black">minOccurs: 1</text><text x="910" y="2900" font-size="8" style="fill:black">maxOccurs: 5</text><text x="910" y="2910" font-size="8" style="fill:black">ref: fotografia</text><rect x="240" y="3070" width="200" height="40" style="fill:white;stroke:black;stroke-width:1" /><text x="250" y="3080" font-size="10" style="fill:blue">xs:element</text><path d="M220 40 C240 40 220 3090 240 3090" style="fill:transparent;stroke:black" /><text x="250" y="3090" font-size="8" style="fill:black">name: fotografia</text><rect x="460" y="3070" width="200" height="40" style="fill:white;stroke:black;stroke-width:1" /><text x="470" y="3080" font-size="10" style="fill:blue">xs:complexType</text><path d="M440 3090 C460 3090 440 3090 460 3090" style="fill:transparent;stroke:black" /><rect x="680" y="3070" width="200" height="40" style="fill:white;stroke:black;stroke-width:1" /><text x="690" y="3080" font-size="10" style="fill:blue">xs:attribute</text><path d="M660 3090 C680 3090 660 3090 680 3090" style="fill:transparent;stroke:black" /><text x="690" y="3090" font-size="8" style="fill:black">name: url</text><text x="690" y="3100" font-size="8" style="fill:black">type: xs:string</text><text x="690" y="3110" font-size="8" style="fill:black">use: required</text><rect x="680" y="3120" width="200" height="40" style="fill:white;stroke:black;stroke-width:1" /><text x="690" y="3130" font-size="10" style="fill:blue">xs:attribute</text><path d="M660 3090 C680 3090 660 3140 680 3140" style="fill:transparent;stroke:black" /><text x="690" y="3140" font-size="8" style="fill:black">name: descripcion</text><text x="690" y="3150" font-size="8" style="fill:black">type: xs:string</text><rect x="240" y="3270" width="200" height="40" style="fill:white;stroke:black;stroke-width:1" /><text x="250" y="3280" font-size="10" style="fill:blue">xs:element</text><path d="M220 40 C240 40 220 3290 240 3290" style="fill:transparent;stroke:black" /><text x="250" y="3290" font-size="8" style="fill:black">name: videos</text><rect x="460" y="3270" width="200" height="40" style="fill:white;stroke:black;stroke-width:1" /><text x="470" y="3280" font-size="10" style="fill:blue">xs:complexType</text><path d="M440 3290 C460 3290 440 3290 460 3290" style="fill:transparent;stroke:black" /><rect x="680" y="3270" width="200" height="40" style="fill:white;stroke:black;stroke-width:1" /><text x="690" y="3280" font-size="10" style="fill:blue">xs:sequence</text><path d="M660 3290 C680 3290 660 3290 680 3290" style="fill:transparent;stroke:black" /><rect x="900" y="3270" width="200" height="40" style="fill:white;stroke:black;stroke-width:1" /><text x="910" y="3280" font-size="10" style="fill:blue">xs:element</text><path d="M880 3290 C900 3290 880 3290 900 3290" style="fill:transparent;stroke:black" /><text x="910" y="3290" font-size="8" style="fill:black">minOccurs: 1</text><text x="910" y="3300" font-size="8" style="fill:black">maxOccurs: 3</text><text x="910" y="3310" font-size="8" style="fill:black">ref: video</text><rect x="240" y="3470" width="200" height="40" style="fill:white;stroke:black;stroke-width:1" /><text x="250" y="3480" font-size="10" style="fill:blue">xs:element</text><path d="M220 40 C240 40 220 3490 240 3490" style="fill:transparent;stroke:black" /><text x="250" y="3490" font-size="8" style="fill:black">name: video</text><rect x="460" y="3470" width="200" height="40" style="fill:white;stroke:black;stroke-width:1" /><text x="470" y="3480" font-size="10" style="fill:blue">xs:complexType</text><path d="M440 3490 C460 3490 440 3490 460 3490" style="fill:transparent;stroke:black" /><rect x="680" y="3470" width="200" height="40" style="fill:white;stroke:black;stroke-width:1" /><text x="690" y="3480" font-size="10" style="fill:blue">xs:attribute</text><path d="M660 3490 C680 3490 660 3490 680 3490" style="fill:transparent;stroke:black" /><text x="690" y="3490" font-size="8" style="fill:black">name: url</text><text x="690" y="3500" font-size="8" style="fill:black">type: xs:string</text><text x="690" y="3510" font-size="8" style="fill:black">use: required</text><rect x="680" y="3520" width="200" height="40" style="fill:white;stroke:black;stroke-width:1" /><text x="690" y="3530" font-size="10" style="fill:blue">xs:attribute</text><path d="M660 3490 C680 3490 660 3540 680 3540" style="fill:transparent;stroke:black" /><text x="690" y="3540" font-size="8" style="fill:black">name: descripcion</text><text x="690" y="3550" font-size="8" style="fill:black">type: xs:string</text><rect x="240" y="3670" width="200" height="40" style="fill:white;stroke:black;stroke-width:1" /><text x="250" y="3680" font-size="10" style="fill:blue">xs:element</text><path d="M220 40 C240 40 220 3690 240 3690" style="fill:transparent;stroke:black" /><text x="250" y="3690" font-size="8" style="fill:black">name: puntoOrigen</text><rect x="460" y="3670" width="200" height="40" style="fill:white;stroke:black;stroke-width:1" /><text x="470" y="3680" font-size="10" style="fill:blue">xs:complexType</text><path d="M440 3690 C460 3690 440 3690 460 3690" style="fill:transparent;stroke:black" /><rect x="680" y="3670" width="200" height="40" style="fill:white;stroke:black;stroke-width:1" /><text x="690" y="3680" font-size="10" style="fill:blue">xs:sequence</text><path d="M660 3690 C680 3690 660 3690 680 3690" style="fill:transparent;stroke:black" /><rect x="900" y="3670" width="200" height="40" style="fill:white;stroke:black;stroke-width:1" /><text x="910" y="3680" font-size="10" style="fill:blue">xs:element</text><path d="M880 3690 C900 3690 880 3690 900 3690" style="fill:transparent;stroke:black" /><text x="910" y="3690" font-size="8" style="fill:black">ref: longitudPunto</text><rect x="900" y="3720" width="200" height="40" style="fill:white;stroke:black;stroke-width:1" /><text x="910" y="3730" font-size="10" style="fill:blue">xs:element</text><path d="M880 3690 C900 3690 880 3740 900 3740" style="fill:transparent;stroke:black" /><text x="910" y="3740" font-size="8" style="fill:black">ref: latitud</text><rect x="900" y="3770" width="200" height="40" style="fill:white;stroke:black;stroke-width:1" /><text x="910" y="3780" font-size="10" style="fill:blue">xs:element</text><path d="M880 3690 C900 3690 880 3790 900 3790" style="fill:transparent;stroke:black" /><text x="910" y="3790" font-size="8" style="fill:black">ref: altitud</text><rect x="240" y="3970" width="200" height="40" style="fill:white;stroke:black;stroke-width:1" /><text x="250" y="3980" font-size="10" style="fill:blue">xs:element</text><path d="M220 40 C240 40 220 3990 240 3990" style="fill:transparent;stroke:black" /><text x="250" y="3990" font-size="8" style="fill:black">name: tramos</text><rect x="460" y="3970" width="200" height="40" style="fill:white;stroke:black;stroke-width:1" /><text x="470" y="3980" font-size="10" style="fill:blue">xs:complexType</text><path d="M440 3990 C460 3990 440 3990 460 3990" style="fill:transparent;stroke:black" /><rect x="680" y="3970" width="200" height="40" style="fill:white;stroke:black;stroke-width:1" /><text x="690" y="3980" font-size="10" style="fill:blue">xs:sequence</text><path d="M660 3990 C680 3990 660 3990 680 3990" style="fill:transparent;stroke:black" /><rect x="900" y="3970" width="200" height="40" style="fill:white;stroke:black;stroke-width:1" /><text x="910" y="3980" font-size="10" style="fill:blue">xs:element</text><path d="M880 3990 C900 3990 880 3990 900 3990" style="fill:transparent;stroke:black" /><text x="910" y="3990" font-size="8" style="fill:black">minOccurs: 3</text><text x="910" y="4000" font-size="8" style="fill:black">maxOccurs: unbounded</text><text x="910" y="4010" font-size="8" style="fill:black">ref: tramo</text><rect x="240" y="4170" width="200" height="40" style="fill:white;stroke:black;stroke-width:1" /><text x="250" y="4180" font-size="10" style="fill:blue">xs:element</text><path d="M220 40 C240 40 220 4190 240 4190" style="fill:transparent;stroke:black" /><text x="250" y="4190" font-size="8" style="fill:black">name: tramo</text><rect x="460" y="4170" width="200" height="40" style="fill:white;stroke:black;stroke-width:1" /><text x="470" y="4180" font-size="10" style="fill:blue">xs:complexType</text><path d="M440 4190 C460 4190 440 4190 460 4190" style="fill:transparent;stroke:black" /><rect x="680" y="4170" width="200" height="40" style="fill:white;stroke:black;stroke-width:1" /><text x="690" y="4180" font-size="10" style="fill:blue">xs:sequence</text><path d="M660 4190 C680 4190 660 4190 680 4190" style="fill:transparent;stroke:black" /><rect x="900" y="4170" width="200" height="40" style="fill:white;stroke:black;stroke-width:1" /><text x="910" y="4180" font-size="10" style="fill:blue">xs:element</text><path d="M880 4190 C900 4190 880 4190 900 4190" style="fill:transparent;stroke:black" /><text x="910" y="4190" font-size="8" style="fill:black">ref: punto</text><rect x="900" y="4220" width="200" height="40" style="fill:white;stroke:black;stroke-width:1" /><text x="910" y="4230" font-size="10" style="fill:blue">xs:element</text><path d="M880 4190 C900 4190 880 4240 900 4240" style="fill:transparent;stroke:black" /><text x="910" y="4240" font-size="8" style="fill:black">ref: distancia</text><rect x="900" y="4270" width="200" height="40" style="fill:white;stroke:black;stroke-width:1" /><text x="910" y="4280" font-size="10" style="fill:blue">xs:element</text><path d="M880 4190 C900 4190 880 4290 900 4290" style="fill:transparent;stroke:black" /><text x="910" y="4290" font-size="8" style="fill:black">ref: sector</text><rect x="240" y="4470" width="200" height="40" style="fill:white;stroke:black;stroke-width:1" /><text x="250" y="4480" font-size="10" style="fill:blue">xs:element</text><path d="M220 40 C240 40 220 4490 240 4490" style="fill:transparent;stroke:black" /><text x="250" y="4490" font-size="8" style="fill:black">name: punto</text><rect x="460" y="4470" width="200" height="40" style="fill:white;stroke:black;stroke-width:1" /><text x="470" y="4480" font-size="10" style="fill:blue">xs:complexType</text><path d="M440 4490 C460 4490 440 4490 460 4490" style="fill:transparent;stroke:black" /><rect x="680" y="4470" width="200" height="40" style="fill:white;stroke:black;stroke-width:1" /><text x="690" y="4480" font-size="10" style="fill:blue">xs:sequence</text><path d="M660 4490 C680 4490 660 4490 680 4490" style="fill:transparent;stroke:black" /><rect x="900" y="4470" width="200" height="40" style="fill:white;stroke:black;stroke-width:1" /><text x="910" y="4480" font-size="10" style="fill:blue">xs:element</text><path d="M880 4490 C900 4490 880 4490 900 4490" style="fill:transparent;stroke:black" /><text x="910" y="4490" font-size="8" style="fill:black">ref: longitudPunto</text><rect x="900" y="4520" width="200" height="40" style="fill:white;stroke:black;stroke-width:1" /><text x="910" y="4530" font-size="10" style="fill:blue">xs:element</text><path d="M880 4490 C900 4490 880 4540 900 4540" style="fill:transparent;stroke:black" /><text x="910" y="4540" font-size="8" style="fill:black">ref: latitud</text><rect x="900" y="4570" width="200" height="40" style="fill:white;stroke:black;stroke-width:1" /><text x="910" y="4580" font-size="10" style="fill:blue">xs:element</text><path d="M880 4490 C900 4490 880 4590 900 4590" style="fill:transparent;stroke:black" /><text x="910" y="4590" font-size="8" style="fill:black">ref: altitud</text><rect x="240" y="4770" width="200" height="40" style="fill:white;stroke:black;stroke-width:1" /><text x="250" y="4780" font-size="10" style="fill:blue">xs:element</text><path d="M220 40 C240 40 220 4790 240 4790" style="fill:transparent;stroke:black" /><text x="250" y="4790" font-size="8" style="fill:black">name: longitudPunto</text><rect x="460" y="4770" width="200" height="40" style="fill:white;stroke:black;stroke-width:1" /><text x="470" y="4780" font-size="10" style="fill:blue">xs:complexType</text><path d="M440 4790 C460 4790 440 4790 460 4790" style="fill:transparent;stroke:black" /><rect x="680" y="4770" width="200" height="40" style="fill:white;stroke:black;stroke-width:1" /><text x="690" y="4780" font-size="10" style="fill:blue">xs:simpleContent</text><path d="M660 4790 C680 4790 660 4790 680 4790" style="fill:transparent;stroke:black" /><rect x="900" y="4770" width="200" height="40" style="fill:white;stroke:black;stroke-width:1" /><text x="910" y="4780" font-size="10" style="fill:blue">xs:extension</text><path d="M880 4790 C900 4790 880 4790 900 4790" style="fill:transparent;stroke:black" /><text x="910" y="4790" font-size="8" style="fill:black">base: xs:string</text><rect x="1120" y="4770" width="200" height="40" style="fill:white;stroke:black;stroke-width:1" /><text x="1130" y="4780" font-size="10" style="fill:blue">xs:attribute</text><path d="M1100 4790 C1120 4790 1100 4790 1120 4790" style="fill:transparent;stroke:black" /><text x="1130" y="4790" font-size="8" style="fill:black">name: cantidad</text><text x="1130" y="4800" font-size="8" style="fill:black">use: required</text><rect x="1340" y="4770" width="200" height="40" style="fill:white;stroke:black;stroke-width:1" /><text x="1350" y="4780" font-size="10" style="fill:blue">xs:simpleType</text><path d="M1320 4790 C1340 4790 1320 4790 1340 4790" style="fill:transparent;stroke:black" /><rect x="1560" y="4770" width="200" height="40" style="fill:white;stroke:black;stroke-width:1" /><text x="1570" y="4780" font-size="10" style="fill:blue">xs:restriction</text><path d="M1540 4790 C1560 4790 1540 4790 1560 4790" style="fill:transparent;stroke:black" /><text x="1570" y="4790" font-size="8" style="fill:black">base: xs:decimal</text><rect x="1780" y="4770" width="200" height="40" style="fill:white;stroke:black;stroke-width:1" /><text x="1790" y="4780" font-size="10" style="fill:blue">xs:minInclusive</text><path d="M1760 4790 C1780 4790 1760 4790 1780 4790" style="fill:transparent;stroke:black" /><text x="1790" y="4790" font-size="8" style="fill:black">value: -180</text><rect x="1780" y="4820" width="200" height="40" style="fill:white;stroke:black;stroke-width:1" /><text x="1790" y="4830" font-size="10" style="fill:blue">xs:maxInclusive</text><path d="M1760 4790 C1780 4790 1760 4840 1780 4840" style="fill:transparent;stroke:black" /><text x="1790" y="4840" font-size="8" style="fill:black">value: 180</text><rect x="1120" y="5020" width="200" height="40" style="fill:white;stroke:black;stroke-width:1" /><text x="1130" y="5030" font-size="10" style="fill:blue">xs:attribute</text><path d="M1100 4790 C1120 4790 1100 5040 1120 5040" style="fill:transparent;stroke:black" /><text x="1130" y="5040" font-size="8" style="fill:black">name: unidad</text><text x="1130" y="5050" font-size="8" style="fill:black">type: xs:string</text><text x="1130" y="5060" font-size="8" style="fill:black">use: required</text><rect x="240" y="5270" width="200" height="40" style="fill:white;stroke:black;stroke-width:1" /><text x="250" y="5280" font-size="10" style="fill:blue">xs:element</text><path d="M220 40 C240 40 220 5290 240 5290" style="fill:transparent;stroke:black" /><text x="250" y="5290" font-size="8" style="fill:black">name: latitud</text><rect x="460" y="5270" width="200" height="40" style="fill:white;stroke:black;stroke-width:1" /><text x="470" y="5280" font-size="10" style="fill:blue">xs:complexType</text><path d="M440 5290 C460 5290 440 5290 460 5290" style="fill:transparent;stroke:black" /><rect x="680" y="5270" width="200" height="40" style="fill:white;stroke:black;stroke-width:1" /><text x="690" y="5280" font-size="10" style="fill:blue">xs:simpleContent</text><path d="M660 5290 C680 5290 660 5290 680 5290" style="fill:transparent;stroke:black" /><rect x="900" y="5270" width="200" height="40" style="fill:white;stroke:black;stroke-width:1" /><text x="910" y="5280" font-size="10" style="fill:blue">xs:extension</text><path d="M880 5290 C900 5290 880 5290 900 5290" style="fill:transparent;stroke:black" /><text x="910" y="5290" font-size="8" style="fill:black">base: xs:string</text><rect x="1120" y="5270" width="200" height="40" style="fill:white;stroke:black;stroke-width:1" /><text x="1130" y="5280" font-size="10" style="fill:blue">xs:attribute</text><path d="M1100 5290 C1120 5290 1100 5290 1120 5290" style="fill:transparent;stroke:black" /><text x="1130" y="5290" font-size="8" style="fill:black">name: cantidad</text><text x="1130" y="5300" font-size="8" style="fill:black">use: required</text><rect x="1340" y="5270" width="200" height="40" style="fill:white;stroke:black;stroke-width:1" /><text x="1350" y="5280" font-size="10" style="fill:blue">xs:simpleType</text><path d="M1320 5290 C1340 5290 1320 5290 1340 5290" style="fill:transparent;stroke:black" /><rect x="1560" y="5270" width="200" height="40" style="fill:white;stroke:black;stroke-width:1" /><text x="1570" y="5280" font-size="10" style="fill:blue">xs:restriction</text><path d="M1540 5290 C1560 5290 1540 5290 1560 5290" style="fill:transparent;stroke:black" /><text x="1570" y="5290" font-size="8" style="fill:black">base: xs:decimal</text><rect x="1780" y="5270" width="200" height="40" style="fill:white;stroke:black;stroke-width:1" /><text x="1790" y="5280" font-size="10" style="fill:blue">xs:minInclusive</text><path d="M1760 5290 C1780 5290 1760 5290 1780 5290" style="fill:transparent;stroke:black" /><text x="1790" y="5290" font-size="8" style="fill:black">value: -90</text><rect x="1780" y="5320" width="200" height="40" style="fill:white;stroke:black;stroke-width:1" /><text x="1790" y="5330" font-size="10" style="fill:blue">xs:maxInclusive</text><path d="M1760 5290 C1780 5290 1760 5340 1780 5340" style="fill:transparent;stroke:black" /><text x="1790" y="5340" font-size="8" style="fill:black">value: 90</text><rect x="1120" y="5520" width="200" height="40" style="fill:white;stroke:black;stroke-width:1" /><text x="1130" y="5530" font-size="10" style="fill:blue">xs:attribute</text><path d="M1100 5290 C1120 5290 1100 5540 1120 5540" style="fill:transparent;stroke:black" /><text x="1130" y="5540" font-size="8" style="fill:black">name: unidad</text><text x="1130" y="5550" font-size="8" style="fill:black">type: xs:string</text><text x="1130" y="5560" font-size="8" style="fill:black">use: required</text><rect x="240" y="5770" width="200" height="40" style="fill:white;stroke:black;stroke-width:1" /><text x="250" y="5780" font-size="10" style="fill:blue">xs:element</text><path d="M220 40 C240 40 220 5790 240 5790" style="fill:transparent;stroke:black" /><text x="250" y="5790" font-size="8" style="fill:black">name: altitud</text><rect x="460" y="5770" width="200" height="40" style="fill:white;stroke:black;stroke-width:1" /><text x="470" y="5780" font-size="10" style="fill:blue">xs:complexType</text><path d="M440 5790 C460 5790 440 5790 460 5790" style="fill:transparent;stroke:black" /><rect x="680" y="5770" width="200" height="40" style="fill:white;stroke:black;stroke-width:1" /><text x="690" y="5780" font-size="10" style="fill:blue">xs:simpleContent</text><path d="M660 5790 C680 5790 660 5790 680 5790" style="fill:transparent;stroke:black" /><rect x="900" y="5770" width="200" height="40" style="fill:white;stroke:black;stroke-width:1" /><text x="910" y="5780" font-size="10" style="fill:blue">xs:extension</text><path d="M880 5790 C900 5790 880 5790 900 5790" style="fill:transparent;stroke:black" /><text x="910" y="5790" font-size="8" style="fill:black">base: xs:string</text><rect x="1120" y="5770" width="200" height="40" style="fill:white;stroke:black;stroke-width:1" /><text x="1130" y="5780" font-size="10" style="fill:blue">xs:attribute</text><path d="M1100 5790 C1120 5790 1100 5790 1120 5790" style="fill:transparent;stroke:black" /><text x="1130" y="5790" font-size="8" style="fill:black">name: cantidad</text><text x="1130" y="5800" font-size="8" style="fill:black">use: required</text><rect x="1340" y="5770" width="200" height="40" style="fill:white;stroke:black;stroke-width:1" /><text x="1350" y="5780" font-size="10" style="fill:blue">xs:simpleType</text><path d="M1320 5790 C1340 5790 1320 5790 1340 5790" style="fill:transparent;stroke:black" /><rect x="1560" y="5770" width="200" height="40" style="fill:white;stroke:black;stroke-width:1" /><text x="1570" y="5780" font-size="10" style="fill:blue">xs:restriction</text><path d="M1540 5790 C1560 5790 1540 5790 1560 5790" style="fill:transparent;stroke:black" /><text x="1570" y="5790" font-size="8" style="fill:black">base: xs:decimal</text><rect x="1780" y="5770" width="200" height="40" style="fill:white;stroke:black;stroke-width:1" /><text x="1790" y="5780" font-size="10" style="fill:blue">xs:minInclusive</text><path d="M1760 5790 C1780 5790 1760 5790 1780 5790" style="fill:transparent;stroke:black" /><text x="1790" y="5790" font-size="8" style="fill:black">value: 0</text><rect x="1780" y="5820" width="200" height="40" style="fill:white;stroke:black;stroke-width:1" /><text x="1790" y="5830" font-size="10" style="fill:blue">xs:maxInclusive</text><path d="M1760 5790 C1780 5790 1760 5840 1780 5840" style="fill:transparent;stroke:black" /><text x="1790" y="5840" font-size="8" style="fill:black">value: 5000</text><rect x="1120" y="6020" width="200" height="40" style="fill:white;stroke:black;stroke-width:1" /><text x="1130" y="6030" font-size="10" style="fill:blue">xs:attribute</text><path d="M1100 5790 C1120 5790 1100 6040 1120 6040" style="fill:transparent;stroke:black" /><text x="1130" y="6040" font-size="8" style="fill:black">name: unidad</text><text x="1130" y="6050" font-size="8" style="fill:black">type: xs:string</text><text x="1130" y="6060" font-size="8" style="fill:black">use: required</text><rect x="240" y="6270" width="200" height="40" style="fill:white;stroke:black;stroke-width:1" /><text x="250" y="6280" font-size="10" style="fill:blue">xs:element</text><path d="M220 40 C240 40 220 6290 240 6290" style="fill:transparent;stroke:black" /><text x="250" y="6290" font-size="8" style="fill:black">name: distancia</text><rect x="460" y="6270" width="200" height="40" style="fill:white;stroke:black;stroke-width:1" /><text x="470" y="6280" font-size="10" style="fill:blue">xs:complexType</text><path d="M440 6290 C460 6290 440 6290 460 6290" style="fill:transparent;stroke:black" /><rect x="680" y="6270" width="200" height="40" style="fill:white;stroke:black;stroke-width:1" /><text x="690" y="6280" font-size="10" style="fill:blue">xs:simpleContent</text><path d="M660 6290 C680 6290 660 6290 680 6290" style="fill:transparent;stroke:black" /><rect x="900" y="6270" width="200" height="40" style="fill:white;stroke:black;stroke-width:1" /><text x="910" y="6280" font-size="10" style="fill:blue">xs:extension</text><path d="M880 6290 C900 6290 880 6290 900 6290" style="fill:transparent;stroke:black" /><text x="910" y="6290" font-size="8" style="fill:black">base: xs:string</text><rect x="1120" y="6270" width="200" height="40" style="fill:white;stroke:black;stroke-width:1" /><text x="1130" y="6280" font-size="10" style="fill:blue">xs:attribute</text><path d="M1100 6290 C1120 6290 1100 6290 1120 6290" style="fill:transparent;stroke:black" /><text x="1130" y="6290" font-size="8" style="fill:black">name: cantidad</text><text x="1130" y="6300" font-size="8" style="fill:black">type: xs:decimal</text><text x="1130" y="6310" font-size="8" style="fill:black">use: required</text><rect x="1120" y="6320" width="200" height="40" style="fill:white;stroke:black;stroke-width:1" /><text x="1130" y="6330" font-size="10" style="fill:blue">xs:attribute</text><path d="M1100 6290 C1120 6290 1100 6340 1120 6340" style="fill:transparent;stroke:black" /><text x="1130" y="6340" font-size="8" style="fill:black">name: unidad</text><text x="1130" y="6350" font-size="8" style="fill:black">type: xs:string</text><text x="1130" y="6360" font-size="8" style="fill:black">use: required</text><rect x="240" y="6570" width="200" height="40" style="fill:white;stroke:black;stroke-width:1" /><text x="250" y="6580" font-size="10" style="fill:blue">xs:element</text><path d="M220 40 C240 40 220 6590 240 6590" style="fill:transparent;stroke:black" /><text x="250" y="6590" font-size="8" style="fill:black">name: sector</text><text x="250" y="6600" font-size="8" style="fill:black">type: xs:integer</text><rect x="240" y="6620" width="200" height="40" style="fill:white;stroke:black;stroke-width:1" /><text x="250" y="6630" font-size="10" style="fill:blue">xs:element</text><path d="M220 40 C240 40 220 6640 240 6640" style="fill:transparent;stroke:black" /><text x="250" y="6640" font-size="8" style="fill:black">name: vencedor</text><text x="250" y="6650" font-size="8" style="fill:black">type: xs:string</text><rect x="240" y="6670" width="200" height="40" style="fill:white;stroke:black;stroke-width:1" /><text x="250" y="6680" font-size="10" style="fill:blue">xs:element</text><path d="M220 40 C240 40 220 6690 240 6690" style="fill:transparent;stroke:black" /><text x="250" y="6690" font-size="8" style="fill:black">name: tiempoVencedor</text><text x="250" y="6700" font-size="8" style="fill:black">type: xs:duration</text><rect x="240" y="6720" width="200" height="40" style="fill:white;stroke:black;stroke-width:1" /><text x="250" y="6730" font-size="10" style="fill:blue">xs:element</text><path d="M220 40 C240 40 220 6740 240 6740" style="fill:transparent;stroke:black" /><text x="250" y="6740" font-size="8" style="fill:black">name: clasificados</text><rect x="460" y="6720" width="200" height="40" style="fill:white;stroke:black;stroke-width:1" /><text x="470" y="6730" font-size="10" style="fill:blue">xs:complexType</text><path d="M440 6740 C460 6740 440 6740 460 6740" style="fill:transparent;stroke:black" /><rect x="680" y="6720" width="200" height="40" style="fill:white;stroke:black;stroke-width:1" /><text x="690" y="6730" font-size="10" style="fill:blue">xs:sequence</text><path d="M660 6740 C680 6740 660 6740 680 6740" style="fill:transparent;stroke:black" /><rect x="900" y="6720" width="200" height="40" style="fill:white;stroke:black;stroke-width:1" /><text x="910" y="6730" font-size="10" style="fill:blue">xs:element</text><path d="M880 6740 C900 6740 880 6740 900 6740" style="fill:transparent;stroke:black" /><text x="910" y="6740" font-size="8" style="fill:black">minOccurs: 3</text><text x="910" y="6750" font-size="8" style="fill:black">maxOccurs: 3</text><text x="910" y="6760" font-size="8" style="fill:black">ref: clasificado</text><rect x="240" y="6920" width="200" height="40" style="fill:white;stroke:black;stroke-width:1" /><text x="250" y="6930" font-size="10" style="fill:blue">xs:element</text><path d="M220 40 C240 40 220 6940 240 6940" style="fill:transparent;stroke:black" /><text x="250" y="6940" font-size="8" style="fill:black">name: clasificado</text><text x="250" y="6950" font-size="8" style="fill:black">type: xs:string</text></svg>